<svg xmlns="http://www.w3.org/2000/svg" xmlns:xlink="http://www.w3.org/1999/xlink" viewBox="0 0 824.116 529.275">
<defs>
<clipPath id="clip-path">
<rect id="Rectangle_7166" data-name="Rectangle 7166" width="816.994" height="521.33" fill="none"></rect>
</clipPath>
<clipPath id="clip-path-2">
<path id="Path_58872" data-name="Path 58872" d="M374.735,766.767c-6.4.368-11.424,5.013-11.582,10.693-.973,34.739-4.127,154.566-2.622,197.03.16,4.5,4.233,8.109,9.314,8.256,25.131.728,117.259,2.573,158.365,1.047,8.562-.318,15.37-6.458,15.548-14.043.854-36.463,2.739-139.019-1.741-186-.537-5.629-5.527-10.112-11.876-10.674-23.461-2.078-94.807-6.729-137.07-6.729-7.038,0-13.266.129-18.336.42" transform="translate(-360.13 -766.347)" fill="none"></path>
</clipPath>
<clipPath id="clip-path-3">
<path id="Rectangle_7170" data-name="Rectangle 7170" d="M24.942,0H136.159A24.942,24.942,0,0,1,161.1,24.942v0A24.942,24.942,0,0,1,136.16,49.884H24.942A24.942,24.942,0,0,1,0,24.942v0A24.942,24.942,0,0,1,24.942,0Z" fill="none"></path>
</clipPath>
<clipPath id="clip-path-4">
<path id="Path_58881" data-name="Path 58881" d="M1273.332,1509.3a9.4,9.4,0,0,0,0,18.809h11.449a9.4,9.4,0,0,0,0-18.809Z" transform="translate(-1263.928 -1509.3)" fill="none"></path>
</clipPath>
<linearGradient id="linear-gradient" x1="-5.597" y1="3.298" x2="-5.592" y2="3.298" gradientUnits="objectBoundingBox">
<stop offset="0" stop-color="#53d8ff"></stop>
<stop offset="1" stop-color="#3840f7"></stop>
</linearGradient>
<clipPath id="clip-path-5">
<path id="Path_58913" data-name="Path 58913" d="M288.242,2116.316a2.9,2.9,0,0,0,2.774,3.142c5.605.233,17.6.688,21.9.5a.944.944,0,0,0,.83-1.293,2.112,2.112,0,0,0-1.08-1.138l-19.805-9.1-3.5-.565s-.751,4.252-1.12,8.461" transform="translate(-288.231 -2107.855)" fill="none"></path>
</clipPath>
<linearGradient id="linear-gradient-2" x1="-1.676" y1="0.735" x2="-1.67" y2="0.735" gradientUnits="objectBoundingBox">
<stop offset="0" stop-color="#2b3582"></stop>
<stop offset="1" stop-color="#150e42"></stop>
</linearGradient>
<clipPath id="clip-path-6">
<path id="Path_58914" data-name="Path 58914" d="M291.532,2087.6l.6,5.086s3.47,1.615,5.839-.2l-1.437-5.668Z" transform="translate(-291.532 -2086.817)" fill="none"></path>
</clipPath>
<linearGradient id="linear-gradient-3" x1="-7.064" y1="2.119" x2="-7.04" y2="2.119" gradientUnits="objectBoundingBox">
<stop offset="0" stop-color="#f9b776"></stop>
<stop offset="1" stop-color="#f47960"></stop>
</linearGradient>
<clipPath id="clip-path-7">
<path id="Path_58915" data-name="Path 58915" d="M194.288,1501.606s-1.386-34.888,0,1.23c1.241,32.323,10.751,66.159,12.735,72.912a1.7,1.7,0,0,0,1.688,1.221,17.2,17.2,0,0,0,5.654-1.15.987.987,0,0,0,.579-1.149c-6.943-29.107-5.8-94.059-5.544-95.387l-14.3,0Z" transform="translate(-193.672 -1479.28)" fill="none"></path>
</clipPath>
<linearGradient id="linear-gradient-4" x1="0.093" y1="1.287" x2="0.095" y2="1.287" xlink:href="#linear-gradient-2"></linearGradient>
<clipPath id="clip-path-8">
<path id="Path_58916" data-name="Path 58916" d="M134.255,2129.915a1.769,1.769,0,0,0,1.557,2.119c1.779.175,4.479.4,6.713.4h.27a1.764,1.764,0,0,0,1.746-1.968,14.879,14.879,0,0,0-3.474-8.16l-4.459-.242s-1.2,2.147-2.353,7.851" transform="translate(-134.218 -2122.064)" fill="none"></path>
</clipPath>
<linearGradient id="linear-gradient-5" x1="-1.26" y1="0.849" x2="-1.25" y2="0.849" xlink:href="#linear-gradient-2"></linearGradient>
<clipPath id="clip-path-9">
<path id="Path_58917" data-name="Path 58917" d="M142.8,2078.542l1.41,7.692s1.394,1.037,4.152.285l-.673-8.275Z" transform="translate(-142.798 -2078.243)" fill="none"></path>
</clipPath>
<linearGradient id="linear-gradient-6" x1="-4.008" y1="1.906" x2="-3.98" y2="1.906" xlink:href="#linear-gradient-3"></linearGradient>
<clipPath id="clip-path-10">
<path id="Path_58918" data-name="Path 58918" d="M106.578,1472.633c-5.678,34.269,1.232,84.7,3.562,94.57a1.539,1.539,0,0,0,1.243,1.169,10.337,10.337,0,0,0,4.441-.177,1.411,1.411,0,0,0,1.014-1.3c.313-7.98-.25-56.969,5.041-76.329a4.4,4.4,0,0,1,1.7-2.426l10.269-7.3.787-11.8Z" transform="translate(-104.392 -1469.038)" fill="none"></path>
</clipPath>
<linearGradient id="linear-gradient-7" x1="0.199" y1="1.203" x2="0.201" y2="1.203" xlink:href="#linear-gradient-2"></linearGradient>
<clipPath id="clip-path-11">
<path id="Path_58919" data-name="Path 58919" d="M143.115,1061.057c-17.017-.281-35.793,4.468-35.793,4.468-5.073,29.6-.887,63.736-.887,63.736,13.174,3.455,28.035-2.112,28.035-2.112,2.189-12.371,12.406-47.187,12.406-47.187a56.057,56.057,0,0,0,20.8-6.6c-4.3-4.987-6.331-11.333-7.212-15.084a57.107,57.107,0,0,1-17.353,2.782" transform="translate(-104.812 -1058.275)" fill="none"></path>
</clipPath>
<linearGradient id="linear-gradient-8" x1="0.029" y1="1.937" x2="0.031" y2="1.937" xlink:href="#linear-gradient"></linearGradient>
<clipPath id="clip-path-12">
<path id="Path_58920" data-name="Path 58920" d="M490.477,907.49c-2.5,10.578-15.635,19.155-29.124,23.347.881,3.751,2.909,10.1,7.212,15.084,22.387-12.588,25.7-37.367,25.7-37.367a3.265,3.265,0,0,0-2.581-1.29,3.2,3.2,0,0,0-1.206.226" transform="translate(-461.353 -907.264)" fill="none"></path>
</clipPath>
<linearGradient id="linear-gradient-9" x1="-2.188" y1="5.174" x2="-2.183" y2="5.174" xlink:href="#linear-gradient-3"></linearGradient>
<clipPath id="clip-path-13">
<path id="Path_58921" data-name="Path 58921" d="M648.212,813.031c-.651.888.012,5.558.053,6.648,1.193,2.274,3.218,1.427,3.043.871a4.514,4.514,0,0,0,3.392-2c.739-1.049,1.52-2.391,2.093-3.422a4.57,4.57,0,0,0,.456-3.365,15.792,15.792,0,0,0-1.9-3.766l3.263-3.4a1.6,1.6,0,0,0-.2-2.223s-6.725,5.928-10.194,10.657" transform="translate(-647.927 -802.374)" fill="none"></path>
</clipPath>
<linearGradient id="linear-gradient-10" x1="-4.194" y1="11.461" x2="-4.187" y2="11.461" xlink:href="#linear-gradient-3"></linearGradient>
<clipPath id="clip-path-14">
<path id="Path_58922" data-name="Path 58922" d="M662.207,855.037l-.933,2.509,2.651,2.941s.891-4.979,1.554-6.057.319-1.6-.3-1.914Z" transform="translate(-661.274 -852.517)" fill="none"></path>
</clipPath>
<linearGradient id="linear-gradient-11" x1="-10.819" y1="24.78" x2="-10.802" y2="24.78" xlink:href="#linear-gradient-3"></linearGradient>
<clipPath id="clip-path-15">
<path id="Path_58923" data-name="Path 58923" d="M2.321,1129.209a37.613,37.613,0,0,1,13.818,3.7c1.176-6.466,11.218-11.719,11.218-11.719l-6.527-16.478s-15.9,10.8-18.509,24.493" transform="translate(-2.321 -1104.716)" fill="none"></path>
</clipPath>
<linearGradient id="linear-gradient-12" x1="0.157" y1="4.705" x2="0.161" y2="4.705" xlink:href="#linear-gradient"></linearGradient>
<clipPath id="clip-path-16">
<path id="Path_58924" data-name="Path 58924" d="M0,1265.345v.05a18.945,18.945,0,0,0,2.416,9.182c10.548,19.294,39.234-1.066,39.234-1.066l-2.362-4.4s-17.846,10.086-23.867,1.474a6.768,6.768,0,0,1-1.241-5.26,37.61,37.61,0,0,0-13.818-3.7A19.977,19.977,0,0,0,0,1265.345" transform="translate(0 -1261.622)" fill="none"></path>
</clipPath>
<linearGradient id="linear-gradient-13" x1="0" y1="4.486" x2="0.004" y2="4.486" xlink:href="#linear-gradient-3"></linearGradient>
<clipPath id="clip-path-17">
<path id="Path_58925" data-name="Path 58925" d="M261.1,1156.171c-5.9.5-11.017,1.077-12.782,1.283a.991.991,0,0,0-.839.714l-9.74,34.013a1,1,0,0,0,.948,1.269l22.6.21a1,1,0,0,0,.8-.395c5.394-7.06,15.807-27.644,19.455-34.977a2,2,0,0,0-1.714-2.891c-.885-.038-1.842-.056-2.856-.056-4.709,0-10.607.383-15.874.829" transform="translate(-237.7 -1155.342)" fill="none"></path>
</clipPath>
<linearGradient id="linear-gradient-14" x1="-0.745" y1="3.895" x2="-0.741" y2="3.895" xlink:href="#linear-gradient-2"></linearGradient>
<clipPath id="clip-path-18">
<path id="Path_58926" data-name="Path 58926" d="M396.5,1134.185l-7.061,1.177a.507.507,0,0,0-.41.385l-.433,1.849a.507.507,0,0,0,.561.618l6.8-.908a.507.507,0,0,0,.414-.344l.7-2.118a.507.507,0,0,0-.479-.666.519.519,0,0,0-.086.007" transform="translate(-388.582 -1134.178)" fill="none"></path>
</clipPath>
<linearGradient id="linear-gradient-15" x1="-10.498" y1="17.884" x2="-10.471" y2="17.884" xlink:href="#linear-gradient"></linearGradient>
<clipPath id="clip-path-19">
<path id="Path_58927" data-name="Path 58927" d="M375.59,1147.737l-14.262,1.447a.7.7,0,0,0-.617.565l-.582,3.03a.7.7,0,0,0,.723.832l13.937-.7a.7.7,0,0,0,.646-.536l.907-3.776a.7.7,0,0,0-.679-.864c-.024,0-.048,0-.073,0" transform="translate(-360.116 -1147.733)" fill="none"></path>
</clipPath>
<linearGradient id="linear-gradient-16" x1="-7.055" y1="9.8" x2="-7.037" y2="9.8" xlink:href="#linear-gradient"></linearGradient>
<clipPath id="clip-path-20">
<path id="Path_58928" data-name="Path 58928" d="M247.135,1268.443c-.547,1.979.809,7.558.809,7.558a5.132,5.132,0,0,0,4.642-1.621c1.066-1.045,1.7-2.09,2.562-1.527a1.805,1.805,0,0,0,2.644-.608l-1.549-1.709c2.269,1.1,2.507-.961,2.507-.961l-1.666-1.289a2.023,2.023,0,0,0,2.9-1.746,51.711,51.711,0,0,0-7.7-2.054,6.055,6.055,0,0,0-.955-.08c-2.779,0-3.693,2.25-4.187,4.039" transform="translate(-247.005 -1264.404)" fill="none"></path>
</clipPath>
<linearGradient id="linear-gradient-17" x1="-2.848" y1="12.101" x2="-2.836" y2="12.101" xlink:href="#linear-gradient-3"></linearGradient>
<clipPath id="clip-path-21">
<path id="Path_58929" data-name="Path 58929" d="M210.322,987.594l-5.415,15.658a.564.564,0,0,0,.257.679c1.476.816,6.794,3.175,13.2-.888a2.657,2.657,0,0,0,1.223-1.9l1.753-13.552Z" transform="translate(-204.876 -987.594)" fill="none"></path>
</clipPath>
<linearGradient id="linear-gradient-18" x1="-1.932" y1="9.607" x2="-1.922" y2="9.607" xlink:href="#linear-gradient-3"></linearGradient>
<clipPath id="clip-path-22">
<path id="Path_58930" data-name="Path 58930" d="M226.33,898.857l4.5,12.085c6.435,3.672,13.8,4,14.565-.524s-5.183-15.713-5.183-15.713Z" transform="translate(-226.33 -894.704)" fill="none"></path>
</clipPath>
<linearGradient id="linear-gradient-19" x1="-1.139" y1="7.487" x2="-1.134" y2="7.487" xlink:href="#linear-gradient-3"></linearGradient>
<clipPath id="clip-path-23">
<path id="Path_58931" data-name="Path 58931" d="M192.051,844.943a.461.461,0,0,1-.731,0c-.8-1.036-2.888-3.185-5.793-1.882-2.718,1.219-3.024,3.211-2.987,4.215a.459.459,0,0,1-.543.47,5.32,5.32,0,0,0-6.212,2.9c-1.268,2.787-.444,4.364.307,5.135a.46.46,0,0,1-.2.764,2.768,2.768,0,0,0-1.953,3.159c.161,2.925,3.432,2.668,4.363,2.534a.462.462,0,0,1,.41.145c.8.884,4.4,4.635,8.289,5.088a.465.465,0,0,0,.488-.615l-1.685-4.9a.464.464,0,0,1,.251-.575l.836-.37a.461.461,0,0,0,.2-.675,12.044,12.044,0,0,1-1.654-3.512s-1.069-.685,2.72-1.591,9.44-2.315,10.628-5.54c.845-2.294-.546-7.121-3.243-7.122-1,0-2.182.664-3.5,2.37" transform="translate(-173.934 -842.573)" fill="none"></path>
</clipPath>
<linearGradient id="linear-gradient-20" x1="-0.603" y1="5.969" x2="-0.599" y2="5.969" xlink:href="#linear-gradient-2"></linearGradient>
<clipPath id="clip-path-24">
<path id="Path_58932" data-name="Path 58932" d="M232.106,956.925c-.309,2.446,3.812,3.543,5.854,2.631l-1.311-2.172s-2.1-1.438-3.446-1.438a1,1,0,0,0-1.1.98" transform="translate(-232.089 -955.945)" fill="none"></path>
</clipPath>
<linearGradient id="linear-gradient-21" x1="-5.019" y1="25.464" x2="-4.996" y2="25.464" xlink:href="#linear-gradient-3"></linearGradient>
<clipPath id="clip-path-25">
<path id="Path_58888" data-name="Path 58888" d="M2112.162,1373.222a.906.906,0,0,0,.738,1.361,216.011,216.011,0,0,0,24.151-.024,1.272,1.272,0,0,0,1.209-1.2c.005-.121.009-.252.011-.391-1.226.491-3.354.853-7.051.69-6.149-.271-13.95-.9-18.445-1.29a7.356,7.356,0,0,0-.614.855" transform="translate(-2112.035 -1372.367)" fill="none"></path>
</clipPath>
<linearGradient id="linear-gradient-22" x1="-28.984" y1="6.262" x2="-28.97" y2="6.262" gradientUnits="objectBoundingBox">
<stop offset="0" stop-color="#cb236d"></stop>
<stop offset="1" stop-color="#4c246d"></stop>
</linearGradient>
<clipPath id="clip-path-26">
<path id="Path_58889" data-name="Path 58889" d="M2134.583,1322.082s-14.026,3.654-18.444,9.076c4.494.388,12.295,1.02,18.444,1.29,3.7.163,5.825-.2,7.051-.69a16.614,16.614,0,0,0-3.089-9.676Z" transform="translate(-2116.139 -1322.082)" fill="none"></path>
</clipPath>
<linearGradient id="linear-gradient-23" x1="-14.963" y1="14.853" x2="-14.956" y2="14.853" xlink:href="#linear-gradient-2"></linearGradient>
<clipPath id="clip-path-27">
<path id="Path_58890" data-name="Path 58890" d="M2203.031,1286.251l1.281,7.141a1.982,1.982,0,0,0,1.332,1.524,6.517,6.517,0,0,0,2.976.246,1.675,1.675,0,0,0,1.43-1.575l.371-7.336Z" transform="translate(-2203.031 -1286.251)" fill="none"></path>
</clipPath>
<linearGradient id="linear-gradient-24" x1="-53.803" y1="18.016" x2="-53.779" y2="18.016" xlink:href="#linear-gradient-3"></linearGradient>
<clipPath id="clip-path-28">
<path id="Path_58891" data-name="Path 58891" d="M2498.266,1368.464c-3.25.453-5.312.368-6.78-.359l.011.015a4.7,4.7,0,0,0,3.543,1.635,11.157,11.157,0,0,0,4.727-.74,2.533,2.533,0,0,0,1.707-2.888l-.008-.029a3.557,3.557,0,0,1-3.2,2.367" transform="translate(-2491.486 -1366.097)" fill="none"></path>
</clipPath>
<linearGradient id="linear-gradient-25" x1="-65.775" y1="13.918" x2="-65.749" y2="13.918" xlink:href="#linear-gradient-22"></linearGradient>
<clipPath id="clip-path-29">
<path id="Path_58892" data-name="Path 58892" d="M2470.655,1285.987h-3.267a4.123,4.123,0,0,0-2.252,4.724c.641,3.024,1.973,8.205,4.662,11.743,1.468.726,3.529.812,6.78.359a3.558,3.558,0,0,0,3.2-2.367c-1.018-4.045-4.117-14.46-9.052-14.459h-.072" transform="translate(-2465.021 -1285.986)" fill="none"></path>
</clipPath>
<linearGradient id="linear-gradient-26" x1="-28.903" y1="9.427" x2="-28.892" y2="9.427" xlink:href="#linear-gradient-2"></linearGradient>
<clipPath id="clip-path-30">
<path id="Path_58893" data-name="Path 58893" d="M2455.351,1249.928l2.664,7.591a1.636,1.636,0,0,0,1.334,1.091,6.953,6.953,0,0,0,3.756-.91,1.958,1.958,0,0,0,1.019-2.219l-1.814-7.215Z" transform="translate(-2455.351 -1248.266)" fill="none"></path>
</clipPath>
<linearGradient id="linear-gradient-27" x1="-49.263" y1="16.158" x2="-49.243" y2="16.158" xlink:href="#linear-gradient-3"></linearGradient>
<clipPath id="clip-path-31">
<path id="Path_58894" data-name="Path 58894" d="M2119.523,700.423a408.774,408.774,0,0,1,13.5,100.383s5.626,1.926,9.989,0c0,0,3.2-53.033-.615-76.988,0,0,10.817,9.017,37.26,72.482,0,0,7.341-.264,9.6-2.266,0,0-24.357-78.564-39.255-102.583-3.1,2.455-12.607,8.57-30.48,8.972" transform="translate(-2119.523 -691.451)" fill="none"></path>
</clipPath>
<linearGradient id="linear-gradient-28" x1="-2.69" y1="2.399" x2="-2.688" y2="2.399" xlink:href="#linear-gradient"></linearGradient>
<clipPath id="clip-path-32">
<path id="Path_58895" data-name="Path 58895" d="M1986.654,302.162s12.373,25.417,23.026,65.193a2.048,2.048,0,0,0,2.061,1.53c14.361-.725,26.752-6.551,30.41-8.431a1.148,1.148,0,0,0,.464-1.616c-2.185-3.662-4.888-9.029-4.664-12.9.8-13.775,2.009-43.976-1.374-60.85a71.112,71.112,0,0,0-8.347-.435c-11.549,0-32.054,2.3-41.575,17.509" transform="translate(-1986.654 -284.653)" fill="none"></path>
</clipPath>
<linearGradient id="linear-gradient-29" x1="-3.346" y1="3.583" x2="-3.344" y2="3.583" xlink:href="#linear-gradient-22"></linearGradient>
<clipPath id="clip-path-33">
<path id="Path_58896" data-name="Path 58896" d="M2175.544,804.908a.847.847,0,0,0,.395,1.13,25.329,25.329,0,0,1,9.774,8.458.847.847,0,0,0,1.446-.881,26.558,26.558,0,0,0-10.484-9.1.848.848,0,0,0-1.131.395" transform="translate(-2175.459 -804.43)" fill="none"></path>
</clipPath>
<linearGradient id="linear-gradient-30" x1="-25.26" y1="17.068" x2="-25.249" y2="17.068" xlink:href="#linear-gradient"></linearGradient>
<clipPath id="clip-path-34">
<path id="Path_58899" data-name="Path 58899" d="M1935.409,409.235a44.52,44.52,0,0,1,3.273,13.667c7.339-2.1,14.146-7.58,15.721-20.25l-9.744-20.987s.128,17.888-9.249,27.57" transform="translate(-1935.409 -381.665)" fill="none"></path>
</clipPath>
<linearGradient id="linear-gradient-31" x1="-7.734" y1="7.88" x2="-7.729" y2="7.88" xlink:href="#linear-gradient-22"></linearGradient>
<clipPath id="clip-path-35">
<path id="Path_58900" data-name="Path 58900" d="M1819.972,540.311l-3.619.638s5.181,14.733,24.76,7.136a44.536,44.536,0,0,0-3.272-13.667c-3.989,4.119-9.7,6.753-17.869,5.892" transform="translate(-1816.353 -534.419)" fill="none"></path>
</clipPath>
<linearGradient id="linear-gradient-32" x1="-13.24" y1="14.039" x2="-13.233" y2="14.039" xlink:href="#linear-gradient-3"></linearGradient>
<clipPath id="clip-path-36">
<path id="Path_58901" data-name="Path 58901" d="M2036.4,216.936l4.7,17.294a3.364,3.364,0,0,0,4.5,2.239,68.256,68.256,0,0,0,6.781-3.1,4.534,4.534,0,0,0,1.6-6.516l-9.781-14.584Z" transform="translate(-2036.398 -212.272)" fill="none"></path>
</clipPath>
<linearGradient id="linear-gradient-33" x1="-19.121" y1="14.238" x2="-19.112" y2="14.238" xlink:href="#linear-gradient-3"></linearGradient>
<clipPath id="clip-path-37">
<path id="Path_58906" data-name="Path 58906" d="M1979.371,152.709c-.043.3,3.924,19.735,3.924,19.735l11.051-2.5-1.022-18.982a39.715,39.715,0,0,0-8.023-1.028c-2.933,0-5.617.611-5.929,2.776" transform="translate(-1979.37 -149.933)" fill="none"></path>
</clipPath>
<linearGradient id="linear-gradient-34" x1="-14.683" y1="13.728" x2="-14.676" y2="13.728" xlink:href="#linear-gradient-3"></linearGradient>
<clipPath id="clip-path-38">
<path id="Path_58907" data-name="Path 58907" d="M1957.1,113.934c-4.952.848-5.513,6.335-4.206,9.551s6.623,1.991,9.29.37c2.028-1.232,4.658.06,5.8.75a1.391,1.391,0,0,1,.658,1.011l1.321,9.95a1.374,1.374,0,0,1,0,.381c-.112.78-.692,3.435-3.372,2.676-2.432-.689-4.662-1.282-6.2-.81a1.4,1.4,0,0,0-.964,1.621,60.577,60.577,0,0,0,2.544,9.057,1.4,1.4,0,0,0,1.7.827,45.157,45.157,0,0,0,9.741-3.986,1.4,1.4,0,0,0,.684-1.262c-.106-2.512-.4-10.148-.153-12.288.232-2.009,2.7-3.213,3.769-3.644a1.378,1.378,0,0,0,.767-.77c.5-1.243,1.18-4.12-2.445-5.3a1.4,1.4,0,0,1-.889-1.816c.537-1.495.763-3.776-2.041-5.033a5.137,5.137,0,0,0-6.129,1.477,1.4,1.4,0,0,1-1.787.211,1.109,1.109,0,0,0-1.262.043,1.381,1.381,0,0,1-1.956-.593,4.111,4.111,0,0,0-3.849-2.515,6,6,0,0,0-1.016.091" transform="translate(-1952.288 -113.843)" fill="none"></path>
</clipPath>
<linearGradient id="linear-gradient-35" x1="-10.814" y1="9.664" x2="-10.809" y2="9.664" xlink:href="#linear-gradient-2"></linearGradient>
<clipPath id="clip-path-39">
<path id="Path_58908" data-name="Path 58908" d="M2070.722,191.059c-2.092,1.4-.055,7.1-.055,7.1s3.714,1.5,4.563-3.638c.477-2.884-.891-4.108-2.471-4.108a3.726,3.726,0,0,0-2.036.649" transform="translate(-2069.778 -190.41)" fill="none"></path>
</clipPath>
<linearGradient id="linear-gradient-36" x1="-33.185" y1="31.089" x2="-33.168" y2="31.089" xlink:href="#linear-gradient-3"></linearGradient>
<clipPath id="clip-path-40">
<path id="Path_58910" data-name="Path 58910" d="M1784.257,537.762c-1.021.255-1.85,2.279-2.347,3.847a2.378,2.378,0,0,0,1.149,2.809c2.066,1.111,5.442,2.719,6.428,1.949,3.921-3.063-3.026-8.627-5.035-8.627a.813.813,0,0,0-.2.022" transform="translate(-1781.8 -537.74)" fill="none"></path>
</clipPath>
<linearGradient id="linear-gradient-37" x1="-27.132" y1="31.706" x2="-27.117" y2="31.706" xlink:href="#linear-gradient-3"></linearGradient>
<clipPath id="clip-path-41">
<path id="Path_58933" data-name="Path 58933" d="M2039.352,1394.936v135.513c0,.626.7,1.134,1.572,1.134s1.573-.507,1.573-1.134V1394.936c0-.626-.7-1.134-1.573-1.134s-1.572.508-1.572,1.134" transform="translate(-2039.352 -1393.802)" fill="none"></path>
</clipPath>
<linearGradient id="linear-gradient-38" x1="-3.176" y1="1.255" x2="-3.174" y2="1.255" xlink:href="#linear-gradient"></linearGradient>
<clipPath id="clip-path-42">
<path id="Path_58934" data-name="Path 58934" d="M2198.411,1389.41V1525.9c0,.631.7,1.142,1.573,1.142s1.572-.511,1.572-1.142V1389.41c0-.631-.7-1.142-1.572-1.142s-1.573.511-1.573,1.142" transform="translate(-2198.411 -1388.268)" fill="none"></path>
</clipPath>
<linearGradient id="linear-gradient-39" x1="-3.434" y1="1.255" x2="-3.432" y2="1.255" xlink:href="#linear-gradient"></linearGradient>
<clipPath id="clip-path-43">
<path id="Path_58935" data-name="Path 58935" d="M2413.387,1388.224l65.993,138.736a1.588,1.588,0,0,0,1.448.856,1.727,1.727,0,0,0,.614-.113,1.411,1.411,0,0,0,.957-1.286v-.015a1.27,1.27,0,0,0-.125-.542l-65.47-137.636a18.907,18.907,0,0,0-2.682-.318c-.506,0-.848.079-.735.318" transform="translate(-2413.365 -1387.906)" fill="none"></path>
</clipPath>
<linearGradient id="linear-gradient-40" x1="-2.67" y1="1.006" x2="-2.669" y2="1.006" xlink:href="#linear-gradient"></linearGradient>
<clipPath id="clip-path-44">
<path id="Path_58936" data-name="Path 58936" d="M2139.557,1390.372l65.748,138.222a1.589,1.589,0,0,0,1.448.856,1.723,1.723,0,0,0,.615-.113,1.354,1.354,0,0,0,.832-1.843l-65.16-136.984c-.186-.391-1.316-.61-2.243-.61-.766,0-1.393.149-1.239.472" transform="translate(-2139.534 -1389.9)" fill="none"></path>
</clipPath>
<linearGradient id="linear-gradient-41" x1="-2.341" y1="1.006" x2="-2.34" y2="1.006" xlink:href="#linear-gradient"></linearGradient>
<clipPath id="clip-path-45">
<path id="Rectangle_7254" data-name="Rectangle 7254" d="M1.98,0h92.51a1.98,1.98,0,0,1,1.98,1.98v0A1.981,1.981,0,0,1,94.49,3.961H1.98A1.98,1.98,0,0,1,0,1.981v0A1.98,1.98,0,0,1,1.98,0Z" fill="none"></path>
</clipPath>
<linearGradient id="linear-gradient-42" x1="-5.384" y1="2.494" x2="-5.381" y2="2.494" xlink:href="#linear-gradient"></linearGradient>
<clipPath id="clip-path-46">
<rect id="Rectangle_7256" data-name="Rectangle 7256" width="49.812" height="2.811" fill="none"></rect>
</clipPath>
<linearGradient id="linear-gradient-43" x1="-11.029" y1="3.623" x2="-11.024" y2="3.623" xlink:href="#linear-gradient"></linearGradient>
<linearGradient id="linear-gradient-44" x1="-11.43" y1="2.771" x2="-11.426" y2="2.771" xlink:href="#linear-gradient"></linearGradient>
<clipPath id="clip-path-48">
<path id="Path_58937" data-name="Path 58937" d="M2379.274,1885.547a1.414,1.414,0,1,0,0,2.811h49.813a1.414,1.414,0,1,0,0-2.811Z" transform="translate(-2377.702 -1885.547)" fill="none"></path>
</clipPath>
<linearGradient id="linear-gradient-45" x1="-11.155" y1="1.839" x2="-11.151" y2="1.839" xlink:href="#linear-gradient"></linearGradient>
<clipPath id="clip-path-49">
<path id="Path_58938" data-name="Path 58938" d="M2462.394,2062.677a1.414,1.414,0,1,0,0,2.811h49.813a1.414,1.414,0,1,0,0-2.811Z" transform="translate(-2460.822 -2062.677)" fill="none"></path>
</clipPath>
<linearGradient id="linear-gradient-46" x1="-11.539" y1="1.036" x2="-11.534" y2="1.036" xlink:href="#linear-gradient"></linearGradient>
<clipPath id="clip-path-50">
<path id="Path_58897" data-name="Path 58897" d="M2309.084,549.184a73.374,73.374,0,0,1-1.184,23.762h2.507c6.251-8.865,9.247-15.274,10.3-22.925a34.529,34.529,0,0,0-8.193-1.142,18.024,18.024,0,0,0-3.434.306" transform="translate(-2307.9 -548.878)" fill="none"></path>
</clipPath>
<linearGradient id="linear-gradient-47" x1="-14.23" y1="10.751" x2="-14.223" y2="10.751" xlink:href="#linear-gradient-3"></linearGradient>
<clipPath id="clip-path-51">
<path id="Path_58898" data-name="Path 58898" d="M2242.318,307.329c8.226,7.058,11.582,16.937,12.705,26.036,3.857-.752,8.411.023,11.627.837,3.919-28.356-20.655-47.139-20.655-47.139Z" transform="translate(-2242.318 -287.063)" fill="none"></path>
</clipPath>
<linearGradient id="linear-gradient-48" x1="-7.042" y1="6.442" x2="-7.038" y2="6.442" xlink:href="#linear-gradient-22"></linearGradient>
<clipPath id="clip-path-52">
<path id="Path_58909" data-name="Path 58909" d="M0,.948S1.137-.623,4.69.28A50.9,50.9,0,0,0,13.11,1.4s4.906-2.211,4.965,1.926L15.9,4.472,4.8,5.376Z" fill="none"></path>
</clipPath>
<linearGradient id="linear-gradient-49" x1="-23.554" y1="-14.368" x2="-23.543" y2="-14.368" xlink:href="#linear-gradient-3"></linearGradient>
<clipPath id="clip-path-53">
<rect id="Rectangle_7276" data-name="Rectangle 7276" width="131.835" height="211.741" transform="translate(0 0)" fill="none"></rect>
</clipPath>
</defs>
<g id="Group_35279" data-name="Group 35279" transform="translate(-738.165 -180.725)">
<g id="Group_35077" data-name="Group 35077" transform="translate(745.287 180.725)">
<g id="Group_35076" data-name="Group 35076" clip-path="url(#clip-path)">
<path id="Path_58810" data-name="Path 58810" d="M453.646,521.33H661.323s48.2-71.739,84.158-128.106S756.191,248.378,705.7,260.643s-109.405-11.289-127-62.233S469.289-87.841,318.953,35.141s-284.1.8-314.764,130.145,116.8,228.241,124.547,269.186S30.521,521.33,30.521,521.33Z" transform="translate(0 0)" fill="#eff3ff"></path>
<path id="Path_58811" data-name="Path 58811" d="M228.914,592.434h107.34s-25.477-52.626-48.867-49.285c-15.032,2.148-12.984,11.023-9.6,17.091-6.234-8.015-18.572-20.98-30.91-17.3-15.841,4.72-1.711,24.589,9.791,33.319-8.166-5.256-28.524-17.1-41.951-14.036-17.124,3.9-13.365,28.127,14.2,30.215" transform="translate(-26.797 -71.104)" fill="#de8eae"></path>
<path id="Path_58812" data-name="Path 58812" d="M832.985,592.434H725.645s25.477-52.626,48.867-49.285c15.032,2.148,12.984,11.023,9.6,17.091,6.235-8.015,18.573-20.98,30.911-17.3,15.841,4.72,1.711,24.589-9.791,33.319,8.166-5.256,28.524-17.1,41.951-14.036,17.124,3.9,13.365,28.127-14.2,30.215" transform="translate(-95.145 -71.104)" fill="#de8eae"></path>
<rect id="Rectangle_7076" data-name="Rectangle 7076" width="97.105" height="16.704" transform="translate(121.783 504.625)" fill="#ffb413"></rect>
<rect id="Rectangle_7077" data-name="Rectangle 7077" width="3.34" height="16.704" transform="translate(208.733 504.625)" fill="#ffcb6e"></rect>
<rect id="Rectangle_7078" data-name="Rectangle 7078" width="3.34" height="16.704" transform="translate(197.285 504.625)" fill="#ffcb6e"></rect>
<rect id="Rectangle_7079" data-name="Rectangle 7079" width="3.34" height="16.704" transform="translate(185.837 504.625)" fill="#ffcb6e"></rect>
<rect id="Rectangle_7080" data-name="Rectangle 7080" width="3.339" height="16.704" transform="translate(174.39 504.625)" fill="#ffcb6e"></rect>
<rect id="Rectangle_7081" data-name="Rectangle 7081" width="3.34" height="16.704" transform="translate(162.942 504.625)" fill="#ffcb6e"></rect>
<rect id="Rectangle_7082" data-name="Rectangle 7082" width="3.339" height="16.704" transform="translate(151.495 504.625)" fill="#ffcb6e"></rect>
<rect id="Rectangle_7083" data-name="Rectangle 7083" width="3.346" height="16.704" transform="translate(140.04 504.625)" fill="#ffcb6e"></rect>
<rect id="Rectangle_7084" data-name="Rectangle 7084" width="3.346" height="16.704" transform="translate(128.592 504.625)" fill="#ffcb6e"></rect>
<path id="Path_58813" data-name="Path 58813" d="M217.333,580.775l-77.171,8.352v-8.352Z" transform="translate(-18.378 -76.15)" fill="#e58217"></path>
<rect id="Rectangle_7085" data-name="Rectangle 7085" width="97.105" height="16.704" transform="translate(101.85 487.918)" fill="#ffb413"></rect>
<rect id="Rectangle_7086" data-name="Rectangle 7086" width="3.339" height="16.704" transform="translate(188.8 487.918)" fill="#ffcb6e"></rect>
<rect id="Rectangle_7087" data-name="Rectangle 7087" width="3.34" height="16.704" transform="translate(177.353 487.918)" fill="#ffcb6e"></rect>
<rect id="Rectangle_7088" data-name="Rectangle 7088" width="3.339" height="16.704" transform="translate(165.905 487.918)" fill="#ffcb6e"></rect>
<rect id="Rectangle_7089" data-name="Rectangle 7089" width="3.34" height="16.704" transform="translate(154.457 487.918)" fill="#ffcb6e"></rect>
<rect id="Rectangle_7090" data-name="Rectangle 7090" width="3.34" height="16.704" transform="translate(143.009 487.918)" fill="#ffcb6e"></rect>
<rect id="Rectangle_7091" data-name="Rectangle 7091" width="3.34" height="16.704" transform="translate(131.561 487.918)" fill="#ffcb6e"></rect>
<rect id="Rectangle_7092" data-name="Rectangle 7092" width="3.346" height="16.704" transform="translate(120.107 487.918)" fill="#ffcb6e"></rect>
<rect id="Rectangle_7093" data-name="Rectangle 7093" width="3.346" height="16.704" transform="translate(108.66 487.918)" fill="#ffcb6e"></rect>
<rect id="Rectangle_7094" data-name="Rectangle 7094" width="97.105" height="16.704" transform="translate(29.506 506.293) rotate(-25.829)" fill="#ffb413"></rect>
<rect id="Rectangle_7095" data-name="Rectangle 7095" width="3.34" height="16.703" transform="translate(107.768 468.409) rotate(-25.833)" fill="#ffcb6e"></rect>
<rect id="Rectangle_7096" data-name="Rectangle 7096" width="3.34" height="16.704" transform="translate(97.464 473.396) rotate(-25.829)" fill="#ffcb6e"></rect>
<rect id="Rectangle_7097" data-name="Rectangle 7097" width="3.34" height="16.704" transform="matrix(0.9, -0.436, 0.436, 0.9, 87.16, 478.385)" fill="#ffcb6e"></rect>
<rect id="Rectangle_7098" data-name="Rectangle 7098" width="3.339" height="16.704" transform="matrix(0.9, -0.436, 0.436, 0.9, 76.856, 483.372)" fill="#ffcb6e"></rect>
<rect id="Rectangle_7099" data-name="Rectangle 7099" width="3.34" height="16.704" transform="matrix(0.9, -0.436, 0.436, 0.9, 66.552, 488.361)" fill="#ffcb6e"></rect>
<rect id="Rectangle_7100" data-name="Rectangle 7100" width="3.339" height="16.704" transform="matrix(0.9, -0.436, 0.436, 0.9, 56.249, 493.349)" fill="#ffcb6e"></rect>
<rect id="Rectangle_7101" data-name="Rectangle 7101" width="3.346" height="16.704" transform="translate(45.939 498.34) rotate(-25.829)" fill="#ffcb6e"></rect>
<rect id="Rectangle_7102" data-name="Rectangle 7102" width="3.346" height="16.704" transform="matrix(0.9, -0.436, 0.436, 0.9, 35.635, 503.328)" fill="#ffcb6e"></rect>
<path id="Path_58814" data-name="Path 58814" d="M559.341,525.6H323.922a15.64,15.64,0,0,1-15.64-15.64V48.178a15.639,15.639,0,0,1,15.64-15.64H559.341a15.64,15.64,0,0,1,15.64,15.64V509.956a15.64,15.64,0,0,1-15.64,15.64" transform="translate(-40.421 -4.266)" fill="#6567f2"></path>
<path id="Path_58815" data-name="Path 58815" d="M567.645,63.932V494.061a11.8,11.8,0,0,1-11.572,12.031H329.8a11.805,11.805,0,0,1-11.574-12.031V63.932A11.806,11.806,0,0,1,329.8,51.9h44.038a18.872,18.872,0,0,0,5.231,13.126,17.455,17.455,0,0,0,12.62,5.432h102.5c9.86,0,17.85-8.308,17.85-18.558h44.038a11.805,11.805,0,0,1,11.572,12.031" transform="translate(-41.509 -6.805)" fill="#fff"></path>
<path id="Path_58816" data-name="Path 58816" d="M522.1,58.866a4.21,4.21,0,1,0-4.211,4.211,4.21,4.21,0,0,0,4.211-4.211" transform="translate(-67.353 -7.166)" fill="#4957b2"></path>
<path id="Path_58817" data-name="Path 58817" d="M404.789,59.15a2.326,2.326,0,1,0-2.327,2.327,2.326,2.326,0,0,0,2.327-2.327" transform="translate(-52.465 -7.45)" fill="#4957b2"></path>
<path id="Path_58818" data-name="Path 58818" d="M490.847,56.823H421.573a2.094,2.094,0,0,0-2.095,2.095v.464a2.094,2.094,0,0,0,2.095,2.094h69.274a2.094,2.094,0,0,0,2.094-2.094v-.464a2.094,2.094,0,0,0-2.094-2.095" transform="translate(-55.001 -7.45)" fill="#4957b2"></path>
<path id="Path_58819" data-name="Path 58819" d="M506.782,565.212H400.223a1.4,1.4,0,0,0,0,2.8H506.782a1.4,1.4,0,0,0,0-2.8" transform="translate(-52.293 -74.109)" fill="#d3dcfe"></path>
<path id="Path_58836" data-name="Path 58836" d="M424.449,164.617a38.057,38.057,0,1,1-38.056-38.057,38.057,38.057,0,0,1,38.056,38.057" transform="translate(-45.673 -16.594)" fill="#8f95ff"></path>
<path id="Path_58837" data-name="Path 58837" d="M394.882,170.36h37.833a2.751,2.751,0,0,1,2.742,2.94,43.419,43.419,0,0,1-40.38,40.38,2.752,2.752,0,0,1-2.94-2.742V173.106a2.745,2.745,0,0,1,2.746-2.746" transform="translate(-51.416 -22.337)" fill="#ffb413"></path>
<path id="Path_58838" data-name="Path 58838" d="M520.936,141.027h-55.6a4.119,4.119,0,1,1,0-8.237h55.6a4.119,4.119,0,1,1,0,8.237" transform="translate(-60.474 -17.411)" fill="#ffb413"></path>
<path id="Path_58839" data-name="Path 58839" d="M554.649,164.747H465.336a4.118,4.118,0,0,1,0-8.237h89.313a4.118,4.118,0,0,1,0,8.237" transform="translate(-60.474 -20.521)" fill="#89a2ac"></path>
<path id="Path_58840" data-name="Path 58840" d="M554.649,189.045H465.336a4.118,4.118,0,1,1,0-8.236h89.313a4.118,4.118,0,1,1,0,8.236" transform="translate(-60.474 -23.707)" fill="#89a2ac"></path>
<rect id="Rectangle_7103" data-name="Rectangle 7103" width="122.386" height="21.052" transform="translate(523.271 500.277)" fill="#ffb413"></rect>
<rect id="Rectangle_7104" data-name="Rectangle 7104" width="4.21" height="21.052" transform="translate(531.86 500.277)" fill="#ffcb6e"></rect>
<rect id="Rectangle_7105" data-name="Rectangle 7105" width="4.209" height="21.052" transform="translate(546.289 500.277)" fill="#ffcb6e"></rect>
<rect id="Rectangle_7106" data-name="Rectangle 7106" width="4.209" height="21.052" transform="translate(560.717 500.277)" fill="#ffcb6e"></rect>
<rect id="Rectangle_7107" data-name="Rectangle 7107" width="4.209" height="21.052" transform="translate(575.146 500.277)" fill="#ffcb6e"></rect>
<rect id="Rectangle_7108" data-name="Rectangle 7108" width="4.209" height="21.052" transform="translate(589.573 500.277)" fill="#ffcb6e"></rect>
<rect id="Rectangle_7109" data-name="Rectangle 7109" width="4.209" height="21.052" transform="translate(604.002 500.277)" fill="#ffcb6e"></rect>
<rect id="Rectangle_7110" data-name="Rectangle 7110" width="4.218" height="21.052" transform="translate(618.43 500.277)" fill="#ffcb6e"></rect>
<rect id="Rectangle_7111" data-name="Rectangle 7111" width="4.218" height="21.052" transform="translate(632.858 500.277)" fill="#ffcb6e"></rect>
<path id="Path_58841" data-name="Path 58841" d="M631.148,575.77,728.411,586.3V575.77Z" transform="translate(-82.754 -75.494)" fill="#e58217"></path>
<rect id="Rectangle_7112" data-name="Rectangle 7112" width="122.386" height="21.053" transform="translate(548.394 479.22)" fill="#ffb413"></rect>
<rect id="Rectangle_7113" data-name="Rectangle 7113" width="4.209" height="21.053" transform="translate(556.982 479.22)" fill="#ffcb6e"></rect>
<rect id="Rectangle_7114" data-name="Rectangle 7114" width="4.21" height="21.053" transform="translate(571.411 479.22)" fill="#ffcb6e"></rect>
<rect id="Rectangle_7115" data-name="Rectangle 7115" width="4.21" height="21.053" transform="translate(585.839 479.22)" fill="#ffcb6e"></rect>
<rect id="Rectangle_7116" data-name="Rectangle 7116" width="4.21" height="21.053" transform="translate(600.268 479.22)" fill="#ffcb6e"></rect>
<rect id="Rectangle_7117" data-name="Rectangle 7117" width="4.21" height="21.053" transform="translate(614.695 479.22)" fill="#ffcb6e"></rect>
<rect id="Rectangle_7118" data-name="Rectangle 7118" width="4.209" height="21.053" transform="translate(629.125 479.22)" fill="#ffcb6e"></rect>
<rect id="Rectangle_7119" data-name="Rectangle 7119" width="4.218" height="21.053" transform="translate(643.553 479.22)" fill="#ffcb6e"></rect>
<rect id="Rectangle_7120" data-name="Rectangle 7120" width="4.218" height="21.053" transform="translate(657.981 479.22)" fill="#ffcb6e"></rect>
<rect id="Rectangle_7121" data-name="Rectangle 7121" width="122.386" height="21.052" transform="translate(549.769 458.168)" fill="#ffb413"></rect>
<rect id="Rectangle_7122" data-name="Rectangle 7122" width="4.209" height="21.052" transform="translate(558.358 458.168)" fill="#ffcb6e"></rect>
<rect id="Rectangle_7123" data-name="Rectangle 7123" width="4.21" height="21.052" transform="translate(572.787 458.168)" fill="#ffcb6e"></rect>
<rect id="Rectangle_7124" data-name="Rectangle 7124" width="4.21" height="21.052" transform="translate(587.214 458.168)" fill="#ffcb6e"></rect>
<rect id="Rectangle_7125" data-name="Rectangle 7125" width="4.21" height="21.052" transform="translate(601.643 458.168)" fill="#ffcb6e"></rect>
<rect id="Rectangle_7126" data-name="Rectangle 7126" width="4.21" height="21.052" transform="translate(616.071 458.168)" fill="#ffcb6e"></rect>
<rect id="Rectangle_7127" data-name="Rectangle 7127" width="4.209" height="21.052" transform="translate(630.5 458.168)" fill="#ffcb6e"></rect>
<rect id="Rectangle_7128" data-name="Rectangle 7128" width="4.218" height="21.052" transform="translate(644.928 458.168)" fill="#ffcb6e"></rect>
<rect id="Rectangle_7129" data-name="Rectangle 7129" width="4.218" height="21.052" transform="translate(659.356 458.168)" fill="#ffcb6e"></rect>
<rect id="Rectangle_7130" data-name="Rectangle 7130" width="122.386" height="21.052" transform="translate(535.832 437.115)" fill="#ffb413"></rect>
<rect id="Rectangle_7131" data-name="Rectangle 7131" width="4.21" height="21.052" transform="translate(544.421 437.115)" fill="#ffcb6e"></rect>
<rect id="Rectangle_7132" data-name="Rectangle 7132" width="4.21" height="21.052" transform="translate(558.85 437.115)" fill="#ffcb6e"></rect>
<rect id="Rectangle_7133" data-name="Rectangle 7133" width="4.209" height="21.052" transform="translate(573.278 437.115)" fill="#ffcb6e"></rect>
<rect id="Rectangle_7134" data-name="Rectangle 7134" width="4.209" height="21.052" transform="translate(587.707 437.115)" fill="#ffcb6e"></rect>
<rect id="Rectangle_7135" data-name="Rectangle 7135" width="4.209" height="21.052" transform="translate(602.135 437.115)" fill="#ffcb6e"></rect>
<rect id="Rectangle_7136" data-name="Rectangle 7136" width="4.209" height="21.052" transform="translate(616.563 437.115)" fill="#ffcb6e"></rect>
<rect id="Rectangle_7137" data-name="Rectangle 7137" width="4.218" height="21.052" transform="translate(630.991 437.115)" fill="#ffcb6e"></rect>
<rect id="Rectangle_7138" data-name="Rectangle 7138" width="4.218" height="21.052" transform="translate(645.419 437.115)" fill="#ffcb6e"></rect>
<rect id="Rectangle_7139" data-name="Rectangle 7139" width="122.386" height="21.052" transform="translate(539.075 416.063)" fill="#ffb413"></rect>
<rect id="Rectangle_7140" data-name="Rectangle 7140" width="4.209" height="21.052" transform="translate(547.665 416.063)" fill="#ffcb6e"></rect>
<rect id="Rectangle_7141" data-name="Rectangle 7141" width="4.209" height="21.052" transform="translate(562.092 416.063)" fill="#ffcb6e"></rect>
<rect id="Rectangle_7142" data-name="Rectangle 7142" width="4.209" height="21.052" transform="translate(576.521 416.063)" fill="#ffcb6e"></rect>
<rect id="Rectangle_7143" data-name="Rectangle 7143" width="4.209" height="21.052" transform="translate(590.949 416.063)" fill="#ffcb6e"></rect>
<rect id="Rectangle_7144" data-name="Rectangle 7144" width="4.209" height="21.052" transform="translate(605.378 416.063)" fill="#ffcb6e"></rect>
<rect id="Rectangle_7145" data-name="Rectangle 7145" width="4.21" height="21.052" transform="translate(619.805 416.063)" fill="#ffcb6e"></rect>
<rect id="Rectangle_7146" data-name="Rectangle 7146" width="4.218" height="21.052" transform="translate(634.233 416.063)" fill="#ffcb6e"></rect>
<rect id="Rectangle_7147" data-name="Rectangle 7147" width="4.218" height="21.052" transform="translate(648.663 416.063)" fill="#ffcb6e"></rect>
<path id="Path_58842" data-name="Path 58842" d="M744.96,399.183a61.195,61.195,0,1,0-61.2,61.2,61.2,61.2,0,0,0,61.2-61.2" transform="translate(-81.63 -44.316)" fill="#ffb413"></path>
<path id="Path_58843" data-name="Path 58843" d="M686.159,446.9a45.318,45.318,0,1,1,45.319-45.319A45.37,45.37,0,0,1,686.159,446.9m0-86.542a41.224,41.224,0,1,0,41.224,41.223,41.271,41.271,0,0,0-41.224-41.223" transform="translate(-84.025 -46.712)" fill="#ffcb6e"></path>
<path id="Path_58844" data-name="Path 58844" d="M691.019,432.442a2.293,2.293,0,0,1-1.448-.482,1.388,1.388,0,0,1-.621-1.105v-2.139a20.634,20.634,0,0,1-7.452-1.38,14.694,14.694,0,0,1-5.073-3.175,5.31,5.31,0,0,1-1.831-3.588,3.846,3.846,0,0,1,.449-1.726,4.983,4.983,0,0,1,1.209-1.552,2.4,2.4,0,0,1,1.587-.656,2.658,2.658,0,0,1,1.69.725q.862.725,2.071,1.725a14.948,14.948,0,0,0,2.966,1.865,12.125,12.125,0,0,0,4.383,1.069V405.8q-2.277-.828-4.59-1.793a18.877,18.877,0,0,1-4.244-2.451,11.114,11.114,0,0,1-3.1-3.726,11.867,11.867,0,0,1-1.174-5.555,12.743,12.743,0,0,1,1.1-5.59,10.821,10.821,0,0,1,3-3.8,14.449,14.449,0,0,1,4.244-2.345,21.575,21.575,0,0,1,4.762-1.106v-2a1.356,1.356,0,0,1,.621-1.139,2.408,2.408,0,0,1,1.448-.448,2.469,2.469,0,0,1,1.416.448,1.342,1.342,0,0,1,.655,1.139V379.3a32.01,32.01,0,0,1,3.691.381,22.238,22.238,0,0,1,3.693.9A8.663,8.663,0,0,1,703.3,382.1a2.778,2.778,0,0,1,1.106,2.173,4.5,4.5,0,0,1-.346,1.587,5.155,5.155,0,0,1-1,1.622,2.174,2.174,0,0,1-1.69.725,3.835,3.835,0,0,1-1.829-.553q-1-.55-2.519-1.207a11.713,11.713,0,0,0-3.933-.794v14.01q2.207.828,4.45,1.932a18.918,18.918,0,0,1,4.072,2.692,11.549,11.549,0,0,1,2.933,4.037,14.483,14.483,0,0,1,1.1,5.969q0,6.351-3.486,9.9a15.125,15.125,0,0,1-9.074,4.313v2.346a1.374,1.374,0,0,1-.655,1.105,2.351,2.351,0,0,1-1.416.482m-1.656-34.091V385.79a11.077,11.077,0,0,0-3.382.9,5.787,5.787,0,0,0-2.38,1.9,5.024,5.024,0,0,0-.864,3,5.442,5.442,0,0,0,.9,3.21,6.622,6.622,0,0,0,2.415,2.07,31.488,31.488,0,0,0,3.313,1.485m3.313,23.532a8.112,8.112,0,0,0,4.45-2.243,6.35,6.35,0,0,0,1.622-4.588,7.079,7.079,0,0,0-.829-3.623,7.882,7.882,0,0,0-2.208-2.415,14.942,14.942,0,0,0-3.036-1.692Z" transform="translate(-88.451 -49.281)" fill="#e58217"></path>
<path id="Path_58845" data-name="Path 58845" d="M249.641,68.153a16.083,16.083,0,1,0-20.658,9.517,16.082,16.082,0,0,0,20.658-9.517" transform="translate(-28.645 -6.096)" fill="#ffb413"></path>
<path id="Path_58846" data-name="Path 58846" d="M231.058,74.385a11.911,11.911,0,1,1,15.3-7.048,11.926,11.926,0,0,1-15.3,7.048m7.878-21.337a10.835,10.835,0,1,0,6.411,13.917,10.847,10.847,0,0,0-6.411-13.917" transform="translate(-29.275 -6.726)" fill="#ffcb6e"></path>
<path id="Path_58847" data-name="Path 58847" d="M233.683,70.971a.591.591,0,0,1-.314-.251.362.362,0,0,1-.052-.328l.195-.527a5.415,5.415,0,0,1-1.712-1.02,3.863,3.863,0,0,1-.963-1.245,1.39,1.39,0,0,1-.123-1.05,1,1,0,0,1,.267-.385,1.318,1.318,0,0,1,.44-.272.618.618,0,0,1,.451-.017.694.694,0,0,1,.351.333c.1.169.215.375.354.613a3.928,3.928,0,0,0,.562.731,3.154,3.154,0,0,0,.983.661l1.476-4q-.486-.413-.968-.861a4.971,4.971,0,0,1-.824-.99,2.952,2.952,0,0,1-.427-1.2,3.136,3.136,0,0,1,.217-1.477,3.347,3.347,0,0,1,.781-1.278,2.858,2.858,0,0,1,1.085-.661,3.746,3.746,0,0,1,1.26-.192,5.617,5.617,0,0,1,1.276.161l.182-.494a.356.356,0,0,1,.257-.224.641.641,0,0,1,.4.021.658.658,0,0,1,.308.24.35.35,0,0,1,.057.341l-.169.459a8.748,8.748,0,0,1,.875.428,5.751,5.751,0,0,1,.829.559,2.25,2.25,0,0,1,.56.632.734.734,0,0,1,.075.636,1.192,1.192,0,0,1-.23.36,1.345,1.345,0,0,1-.394.309.571.571,0,0,1-.483.023.992.992,0,0,1-.4-.3c-.13-.151-.3-.328-.511-.527a3.105,3.105,0,0,0-.9-.553l-1.276,3.454q.47.405.922.881a4.928,4.928,0,0,1,.759,1.034,3.035,3.035,0,0,1,.356,1.264,3.81,3.81,0,0,1-.271,1.571,3.563,3.563,0,0,1-1.761,2.124,3.972,3.972,0,0,1-2.63.238l-.213.577a.359.359,0,0,1-.262.213.612.612,0,0,1-.393-.01m2.694-8.555,1.144-3.1a2.927,2.927,0,0,0-.916-.086,1.539,1.539,0,0,0-.76.251,1.328,1.328,0,0,0-.486.66,1.446,1.446,0,0,0-.071.874,1.754,1.754,0,0,0,.407.731,8.448,8.448,0,0,0,.681.667m-1.325,6.1a2.144,2.144,0,0,0,1.3-.148,1.665,1.665,0,0,0,.817-.984,1.846,1.846,0,0,0,.126-.968,2.089,2.089,0,0,0-.324-.8,3.909,3.909,0,0,0-.6-.694Z" transform="translate(-30.243 -7.471)" fill="#e58217"></path>
<path id="Path_58848" data-name="Path 58848" d="M691.022,181.706a21.747,21.747,0,1,0-8.846,29.455,21.747,21.747,0,0,0,8.846-29.455" transform="translate(-85.242 -22.324)" fill="#ffb413"></path>
<path id="Path_58849" data-name="Path 58849" d="M680.354,207.045a16.1,16.1,0,1,1,6.552-21.813,16.122,16.122,0,0,1-6.552,21.813m-14.572-27.082a14.65,14.65,0,1,0,19.843,5.958,14.665,14.665,0,0,0-19.843-5.958" transform="translate(-86.094 -23.176)" fill="#ffcb6e"></path>
<path id="Path_58850" data-name="Path 58850" d="M678.965,202.7a.818.818,0,0,1-.534.092.494.494,0,0,1-.38-.241l-.361-.669a7.363,7.363,0,0,1-2.565.823,5.246,5.246,0,0,1-2.121-.139,1.886,1.886,0,0,1-1.177-.816,1.352,1.352,0,0,1-.149-.615,1.779,1.779,0,0,1,.116-.69.855.855,0,0,1,.387-.472.948.948,0,0,1,.652-.058c.26.055.574.119.938.192a5.288,5.288,0,0,0,1.242.083,4.273,4.273,0,0,0,1.552-.4l-2.731-5.074q-.851.122-1.739.211a6.688,6.688,0,0,1-1.74-.052,3.95,3.95,0,0,1-1.6-.643,4.234,4.234,0,0,1-1.3-1.541,4.54,4.54,0,0,1-.6-1.935,3.851,3.851,0,0,1,.3-1.693,5.141,5.141,0,0,1,.933-1.448,7.643,7.643,0,0,1,1.3-1.148l-.337-.626a.481.481,0,0,1,0-.46.865.865,0,0,1,.378-.385.88.88,0,0,1,.519-.1.475.475,0,0,1,.4.245l.314.583a11.455,11.455,0,0,1,1.22-.5,7.829,7.829,0,0,1,1.307-.341,3.094,3.094,0,0,1,1.14,0,.989.989,0,0,1,.713.494,1.6,1.6,0,0,1,.159.554,1.834,1.834,0,0,1-.04.677.775.775,0,0,1-.407.512,1.368,1.368,0,0,1-.665.135c-.271,0-.6.012-.992.047a4.166,4.166,0,0,0-1.364.413l2.359,4.384q.83-.113,1.718-.145a6.72,6.72,0,0,1,1.728.157,4.112,4.112,0,0,1,1.6.768,5.154,5.154,0,0,1,1.351,1.683,4.815,4.815,0,0,1,.577,3.686,5.383,5.383,0,0,1-2.113,2.879l.4.733a.488.488,0,0,1-.02.456.836.836,0,0,1-.361.39m-6.258-10.39-2.115-3.931a3.933,3.933,0,0,0-.907.851,2.052,2.052,0,0,0-.426.995,1.788,1.788,0,0,0,.235,1.084,1.927,1.927,0,0,0,.821.853,2.356,2.356,0,0,0,1.1.241,11.2,11.2,0,0,0,1.287-.093m5,6.807a2.894,2.894,0,0,0,1.015-1.452,2.259,2.259,0,0,0-.265-1.709,2.52,2.52,0,0,0-.87-.994,2.81,2.81,0,0,0-1.1-.385,5.368,5.368,0,0,0-1.235-.017Z" transform="translate(-87.436 -24.234)" fill="#e58217"></path>
<path id="Path_58851" data-name="Path 58851" d="M104.322,225.554a21.747,21.747,0,1,0-8.846,29.454,21.747,21.747,0,0,0,8.846-29.454" transform="translate(-8.316 -28.073)" fill="#ffb413"></path>
<path id="Path_58852" data-name="Path 58852" d="M93.655,250.893a16.1,16.1,0,1,1,6.552-21.814,16.122,16.122,0,0,1-6.552,21.814M79.083,223.81a14.65,14.65,0,1,0,19.843,5.959,14.665,14.665,0,0,0-19.843-5.959" transform="translate(-9.168 -28.926)" fill="#ffcb6e"></path>
<path id="Path_58853" data-name="Path 58853" d="M92.266,246.55a.813.813,0,0,1-.534.093.492.492,0,0,1-.381-.242l-.361-.668a7.368,7.368,0,0,1-2.565.823,5.23,5.23,0,0,1-2.121-.14,1.885,1.885,0,0,1-1.177-.815,1.354,1.354,0,0,1-.149-.615,1.782,1.782,0,0,1,.116-.69.856.856,0,0,1,.387-.472.943.943,0,0,1,.652-.058c.26.054.574.119.938.191a5.236,5.236,0,0,0,1.242.083,4.272,4.272,0,0,0,1.552-.4l-2.731-5.074q-.851.123-1.739.211a6.686,6.686,0,0,1-1.74-.053,3.939,3.939,0,0,1-1.6-.643,4.23,4.23,0,0,1-1.3-1.541,4.537,4.537,0,0,1-.6-1.935,3.849,3.849,0,0,1,.3-1.693,5.138,5.138,0,0,1,.933-1.448,7.644,7.644,0,0,1,1.3-1.148l-.337-.626a.481.481,0,0,1,0-.461.86.86,0,0,1,.378-.385.881.881,0,0,1,.519-.1.476.476,0,0,1,.4.246l.314.583a11.273,11.273,0,0,1,1.22-.5,7.829,7.829,0,0,1,1.307-.341,3.076,3.076,0,0,1,1.14,0,.985.985,0,0,1,.712.494,1.608,1.608,0,0,1,.159.554,1.836,1.836,0,0,1-.04.677.774.774,0,0,1-.408.511,1.368,1.368,0,0,1-.665.136q-.407,0-.992.046a4.194,4.194,0,0,0-1.364.414l2.359,4.384q.83-.113,1.718-.145a6.718,6.718,0,0,1,1.728.157,4.087,4.087,0,0,1,1.6.768,5.154,5.154,0,0,1,1.351,1.683,4.815,4.815,0,0,1,.577,3.686,5.378,5.378,0,0,1-2.113,2.878l.4.734a.489.489,0,0,1-.02.456.83.83,0,0,1-.361.389M86.007,236.16l-2.115-3.931a3.933,3.933,0,0,0-.907.851,2.049,2.049,0,0,0-.426.995,1.788,1.788,0,0,0,.235,1.084,1.932,1.932,0,0,0,.821.853,2.355,2.355,0,0,0,1.1.241,11.19,11.19,0,0,0,1.287-.093m5,6.806a2.888,2.888,0,0,0,1.015-1.451,2.259,2.259,0,0,0-.265-1.709,2.515,2.515,0,0,0-.87-.994,2.811,2.811,0,0,0-1.1-.385,5.366,5.366,0,0,0-1.235-.017Z" transform="translate(-10.509 -29.983)" fill="#e58217"></path>
<rect id="Rectangle_7148" data-name="Rectangle 7148" width="53.666" height="9.231" transform="translate(40.389 254.468) rotate(-25.829)" fill="#ffb413"></rect>
<rect id="Rectangle_7149" data-name="Rectangle 7149" width="1.845" height="9.232" transform="translate(83.642 233.53) rotate(-25.829)" fill="#ffcb6e"></rect>
<rect id="Rectangle_7150" data-name="Rectangle 7150" width="1.846" height="9.232" transform="translate(77.947 236.287) rotate(-25.834)" fill="#ffcb6e"></rect>
<rect id="Rectangle_7151" data-name="Rectangle 7151" width="1.845" height="9.232" transform="translate(72.253 239.044) rotate(-25.834)" fill="#ffcb6e"></rect>
<rect id="Rectangle_7152" data-name="Rectangle 7152" width="1.845" height="9.232" transform="translate(66.558 241.801) rotate(-25.834)" fill="#ffcb6e"></rect>
<rect id="Rectangle_7153" data-name="Rectangle 7153" width="1.846" height="9.232" transform="translate(60.864 244.557) rotate(-25.829)" fill="#ffcb6e"></rect>
<rect id="Rectangle_7154" data-name="Rectangle 7154" width="1.846" height="9.232" transform="translate(55.168 247.314) rotate(-25.834)" fill="#ffcb6e"></rect>
<rect id="Rectangle_7155" data-name="Rectangle 7155" width="1.85" height="9.232" transform="translate(49.471 250.072) rotate(-25.834)" fill="#ffcb6e"></rect>
<rect id="Rectangle_7156" data-name="Rectangle 7156" width="1.849" height="9.232" transform="translate(43.776 252.829) rotate(-25.834)" fill="#ffcb6e"></rect>
<rect id="Rectangle_7157" data-name="Rectangle 7157" width="9.232" height="53.666" transform="matrix(0.452, -0.892, 0.892, 0.452, 603.098, 214.436)" fill="#ffb413"></rect>
<rect id="Rectangle_7158" data-name="Rectangle 7158" width="9.231" height="1.846" transform="translate(645.976 236.131) rotate(-63.165)" fill="#ffcb6e"></rect>
<rect id="Rectangle_7159" data-name="Rectangle 7159" width="9.232" height="1.846" transform="matrix(0.452, -0.892, 0.892, 0.452, 640.33, 233.275)" fill="#ffcb6e"></rect>
<rect id="Rectangle_7160" data-name="Rectangle 7160" width="9.232" height="1.846" transform="matrix(0.452, -0.892, 0.892, 0.452, 634.685, 230.419)" fill="#ffcb6e"></rect>
<rect id="Rectangle_7161" data-name="Rectangle 7161" width="9.231" height="1.846" transform="matrix(0.452, -0.892, 0.892, 0.452, 629.04, 227.562)" fill="#ffcb6e"></rect>
<rect id="Rectangle_7162" data-name="Rectangle 7162" width="9.231" height="1.846" transform="translate(623.395 224.706) rotate(-63.165)" fill="#ffcb6e"></rect>
<rect id="Rectangle_7163" data-name="Rectangle 7163" width="9.231" height="1.846" transform="translate(617.75 221.85) rotate(-63.162)" fill="#ffcb6e"></rect>
<rect id="Rectangle_7164" data-name="Rectangle 7164" width="9.231" height="1.849" transform="translate(612.101 218.992) rotate(-63.162)" fill="#ffcb6e"></rect>
<rect id="Rectangle_7165" data-name="Rectangle 7165" width="9.231" height="1.85" transform="matrix(0.452, -0.892, 0.892, 0.452, 606.455, 216.136)" fill="#ffcb6e"></rect>
<g id="Group_35282" data-name="Group 35282" transform="translate(-56 -30)">
<path id="Path_58854" data-name="Path 58854" d="M893.82,492.64a19.308,19.308,0,1,0-19.309,19.309A19.309,19.309,0,0,0,893.82,492.64" transform="translate(-112.132 -62.062)" fill="#d3dcfe"></path>
<path id="Path_58855" data-name="Path 58855" d="M875.266,507.7a14.3,14.3,0,1,1,14.3-14.3,14.316,14.316,0,0,1-14.3,14.3m0-27.306A13.007,13.007,0,1,0,888.274,493.4a13.022,13.022,0,0,0-13.008-13.007" transform="translate(-112.888 -62.818)" fill="#eff3ff"></path>
<path id="Path_58856" data-name="Path 58856" d="M876.8,503.136a.721.721,0,0,1-.456-.153.44.44,0,0,1-.2-.348v-.675a6.509,6.509,0,0,1-2.352-.435,4.646,4.646,0,0,1-1.6-1,1.671,1.671,0,0,1-.577-1.132,1.2,1.2,0,0,1,.142-.545,1.583,1.583,0,0,1,.381-.489.758.758,0,0,1,.5-.207.844.844,0,0,1,.534.228q.271.229.653.545a4.691,4.691,0,0,0,.936.588,3.838,3.838,0,0,0,1.382.338V494.73q-.718-.261-1.448-.566a5.993,5.993,0,0,1-1.339-.773,3.517,3.517,0,0,1-.979-1.176,3.74,3.74,0,0,1-.37-1.753,4.021,4.021,0,0,1,.348-1.764,3.413,3.413,0,0,1,.947-1.2,4.545,4.545,0,0,1,1.339-.74,6.811,6.811,0,0,1,1.5-.348v-.632a.428.428,0,0,1,.2-.359.761.761,0,0,1,.456-.142.783.783,0,0,1,.447.142.423.423,0,0,1,.207.359v.588a10.15,10.15,0,0,1,1.164.12,6.884,6.884,0,0,1,1.165.283,2.752,2.752,0,0,1,.892.479.876.876,0,0,1,.349.686,1.429,1.429,0,0,1-.109.5,1.633,1.633,0,0,1-.316.512.686.686,0,0,1-.534.229,1.211,1.211,0,0,1-.577-.175c-.21-.116-.476-.242-.8-.381a3.686,3.686,0,0,0-1.241-.25v4.42q.7.262,1.4.61a5.956,5.956,0,0,1,1.285.849,3.627,3.627,0,0,1,.925,1.274,4.574,4.574,0,0,1,.349,1.883,4.273,4.273,0,0,1-1.1,3.125,4.768,4.768,0,0,1-2.863,1.361v.74a.435.435,0,0,1-.207.348.741.741,0,0,1-.447.153m-.521-10.757v-3.963a3.483,3.483,0,0,0-1.068.283,1.832,1.832,0,0,0-.751.6,1.585,1.585,0,0,0-.272.947,1.712,1.712,0,0,0,.283,1.012,2.086,2.086,0,0,0,.762.653,9.959,9.959,0,0,0,1.045.468m1.045,7.425a2.553,2.553,0,0,0,1.4-.707,2,2,0,0,0,.513-1.448,2.241,2.241,0,0,0-.261-1.143,2.493,2.493,0,0,0-.7-.762,4.723,4.723,0,0,0-.958-.534Z" transform="translate(-114.284 -63.629)" fill="#eff3ff"></path>
</g>
<path id="Path_58857" data-name="Path 58857" d="M98.909,123.646A19.308,19.308,0,1,0,79.6,142.955a19.309,19.309,0,0,0,19.308-19.308" transform="translate(-7.905 -13.681)" fill="#d3dcfe"></path>
<path id="Path_58858" data-name="Path 58858" d="M80.355,138.7a14.3,14.3,0,1,1,14.3-14.3,14.315,14.315,0,0,1-14.3,14.3m0-27.306A13.007,13.007,0,1,0,93.363,124.4,13.022,13.022,0,0,0,80.355,111.4" transform="translate(-8.661 -14.437)" fill="#eff3ff"></path>
<path id="Path_58859" data-name="Path 58859" d="M81.889,134.141a.726.726,0,0,1-.457-.152.44.44,0,0,1-.2-.348v-.676a6.482,6.482,0,0,1-2.351-.435,4.628,4.628,0,0,1-1.6-1,1.672,1.672,0,0,1-.578-1.132,1.2,1.2,0,0,1,.142-.545,1.583,1.583,0,0,1,.381-.49.761.761,0,0,1,.5-.206.838.838,0,0,1,.534.228q.272.229.653.544a4.647,4.647,0,0,0,.936.589,3.824,3.824,0,0,0,1.382.337v-5.117c-.478-.174-.962-.363-1.448-.566a5.993,5.993,0,0,1-1.339-.774,3.493,3.493,0,0,1-.978-1.175,3.743,3.743,0,0,1-.371-1.753,4.02,4.02,0,0,1,.348-1.763,3.413,3.413,0,0,1,.947-1.2,4.569,4.569,0,0,1,1.339-.74,6.774,6.774,0,0,1,1.5-.348v-.632a.431.431,0,0,1,.2-.36.761.761,0,0,1,.457-.141.779.779,0,0,1,.447.141.426.426,0,0,1,.207.36v.588a10.153,10.153,0,0,1,1.164.12,6.915,6.915,0,0,1,1.166.283,2.714,2.714,0,0,1,.891.479.874.874,0,0,1,.349.686,1.428,1.428,0,0,1-.109.5,1.635,1.635,0,0,1-.316.513.688.688,0,0,1-.533.229,1.211,1.211,0,0,1-.577-.175q-.315-.173-.8-.381a3.706,3.706,0,0,0-1.241-.251V123.8q.7.261,1.4.609a6.008,6.008,0,0,1,1.284.849,3.647,3.647,0,0,1,.926,1.274,4.6,4.6,0,0,1,.348,1.884,4.274,4.274,0,0,1-1.1,3.125,4.771,4.771,0,0,1-2.863,1.36v.741a.435.435,0,0,1-.207.348.743.743,0,0,1-.447.152m-.522-10.757v-3.962a3.462,3.462,0,0,0-1.068.283,1.831,1.831,0,0,0-.751.6,1.588,1.588,0,0,0-.271.947,1.721,1.721,0,0,0,.282,1.013,2.092,2.092,0,0,0,.762.653,9.769,9.769,0,0,0,1.045.468m1.045,7.425a2.56,2.56,0,0,0,1.4-.707,2,2,0,0,0,.512-1.448,2.247,2.247,0,0,0-.262-1.144,2.483,2.483,0,0,0-.7-.762,4.767,4.767,0,0,0-.958-.533Z" transform="translate(-10.058 -15.247)" fill="#eff3ff"></path>
<path id="Path_58860" data-name="Path 58860" d="M138.238,431.9a23.486,23.486,0,1,0-23.485,23.486A23.486,23.486,0,0,0,138.238,431.9" transform="translate(-11.966 -53.551)" fill="#d3dcfe"></path>
<path id="Path_58861" data-name="Path 58861" d="M115.67,450.216a17.393,17.393,0,1,1,17.393-17.393,17.413,17.413,0,0,1-17.393,17.393m0-33.214a15.821,15.821,0,1,0,15.822,15.821A15.839,15.839,0,0,0,115.67,417" transform="translate(-12.886 -54.47)" fill="#eff3ff"></path>
<path id="Path_58862" data-name="Path 58862" d="M117.537,444.668a.881.881,0,0,1-.557-.185.532.532,0,0,1-.238-.424v-.821a7.915,7.915,0,0,1-2.86-.53,5.65,5.65,0,0,1-1.947-1.218,2.034,2.034,0,0,1-.7-1.377,1.478,1.478,0,0,1,.171-.662,1.922,1.922,0,0,1,.464-.6.92.92,0,0,1,.609-.252,1.015,1.015,0,0,1,.648.278c.221.185.487.407.8.662a5.742,5.742,0,0,0,1.139.715,4.656,4.656,0,0,0,1.682.411v-6.226q-.873-.317-1.761-.688a7.23,7.23,0,0,1-1.629-.94,4.267,4.267,0,0,1-1.192-1.43,4.557,4.557,0,0,1-.449-2.131,4.9,4.9,0,0,1,.423-2.146,4.155,4.155,0,0,1,1.152-1.457,5.568,5.568,0,0,1,1.628-.9,8.35,8.35,0,0,1,1.828-.424v-.768a.519.519,0,0,1,.238-.436.92.92,0,0,1,.557-.172.944.944,0,0,1,.543.172.515.515,0,0,1,.251.436v.715a12.48,12.48,0,0,1,1.416.146,8.432,8.432,0,0,1,1.417.345,3.322,3.322,0,0,1,1.086.583,1.061,1.061,0,0,1,.424.834,1.718,1.718,0,0,1-.133.608,1.963,1.963,0,0,1-.384.623.831.831,0,0,1-.648.278,1.47,1.47,0,0,1-.7-.212q-.384-.211-.967-.463a4.488,4.488,0,0,0-1.509-.3v5.377q.847.318,1.707.741a7.231,7.231,0,0,1,1.563,1.034,4.416,4.416,0,0,1,1.126,1.549,5.569,5.569,0,0,1,.423,2.29,5.191,5.191,0,0,1-1.337,3.8,5.809,5.809,0,0,1-3.482,1.656v.9a.528.528,0,0,1-.251.424.905.905,0,0,1-.543.185m-.636-13.085v-4.82a4.258,4.258,0,0,0-1.3.344,2.229,2.229,0,0,0-.914.729,1.928,1.928,0,0,0-.331,1.151,2.088,2.088,0,0,0,.345,1.232,2.544,2.544,0,0,0,.926.794,11.962,11.962,0,0,0,1.272.569m1.271,9.032a3.118,3.118,0,0,0,1.708-.86,2.442,2.442,0,0,0,.623-1.762,2.714,2.714,0,0,0-.319-1.39,3.04,3.04,0,0,0-.847-.927,5.757,5.757,0,0,0-1.165-.649Z" transform="translate(-14.585 -55.456)" fill="#eff3ff"></path>
<path id="Path_58863" data-name="Path 58863" d="M840.044,304.881a23.486,23.486,0,1,0-23.486,23.486,23.486,23.486,0,0,0,23.486-23.486" transform="translate(-103.985 -36.896)" fill="#d3dcfe"></path>
<path id="Path_58864" data-name="Path 58864" d="M817.477,323.193A17.393,17.393,0,1,1,834.87,305.8a17.413,17.413,0,0,1-17.392,17.393m0-33.214A15.821,15.821,0,1,0,833.3,305.8a15.839,15.839,0,0,0-15.821-15.821" transform="translate(-104.905 -37.815)" fill="#eff3ff"></path>
<path id="Path_58865" data-name="Path 58865" d="M819.343,317.645a.883.883,0,0,1-.557-.185.532.532,0,0,1-.238-.424v-.82a7.953,7.953,0,0,1-2.86-.53,5.654,5.654,0,0,1-1.947-1.219,2.034,2.034,0,0,1-.7-1.376,1.481,1.481,0,0,1,.171-.663,1.922,1.922,0,0,1,.464-.6.92.92,0,0,1,.609-.252,1.018,1.018,0,0,1,.649.278c.22.185.486.407.794.662a5.745,5.745,0,0,0,1.139.715,4.639,4.639,0,0,0,1.682.411v-6.225q-.873-.318-1.761-.689a7.234,7.234,0,0,1-1.629-.94,4.272,4.272,0,0,1-1.192-1.429,4.559,4.559,0,0,1-.449-2.132,4.89,4.89,0,0,1,.423-2.145,4.139,4.139,0,0,1,1.152-1.457,5.521,5.521,0,0,1,1.629-.9,8.233,8.233,0,0,1,1.827-.424v-.768a.519.519,0,0,1,.238-.437.928.928,0,0,1,.557-.172.951.951,0,0,1,.543.172.515.515,0,0,1,.251.437v.714a12.482,12.482,0,0,1,1.416.146,8.51,8.51,0,0,1,1.417.345,3.321,3.321,0,0,1,1.086.583,1.064,1.064,0,0,1,.425.834,1.72,1.72,0,0,1-.134.608,1.953,1.953,0,0,1-.384.623.831.831,0,0,1-.648.278,1.47,1.47,0,0,1-.7-.212q-.384-.211-.967-.463a4.488,4.488,0,0,0-1.509-.3v5.377q.847.317,1.707.74a7.207,7.207,0,0,1,1.563,1.034,4.416,4.416,0,0,1,1.126,1.549,5.571,5.571,0,0,1,.423,2.29,5.193,5.193,0,0,1-1.337,3.8,5.813,5.813,0,0,1-3.482,1.655v.9a.528.528,0,0,1-.251.424.905.905,0,0,1-.543.185m-.636-13.084v-4.821a4.234,4.234,0,0,0-1.3.345,2.229,2.229,0,0,0-.914.728,1.931,1.931,0,0,0-.331,1.151,2.086,2.086,0,0,0,.345,1.232,2.544,2.544,0,0,0,.926.794,11.954,11.954,0,0,0,1.272.57m1.271,9.032a3.124,3.124,0,0,0,1.708-.861,2.441,2.441,0,0,0,.623-1.761,2.709,2.709,0,0,0-.319-1.39,3.033,3.033,0,0,0-.847-.928,5.8,5.8,0,0,0-1.165-.649Z" transform="translate(-106.604 -38.801)" fill="#eff3ff"></path>
<circle id="Ellipse_2564" data-name="Ellipse 2564" cx="88.5" cy="88.5" r="88.5" transform="translate(312.713 234.275)" fill="#84d1fb"></circle>
<path id="Intersection_1" data-name="Intersection 1" d="M-4585.883-223.55a88.085,88.085,0,0,1,45.626-12.937v92.665Z" transform="translate(4941 470.763)" fill="#df5a45"></path>
<path id="Intersection_2" data-name="Intersection 2" d="M-4618.408-123.7l3.626-32.053a88.706,88.706,0,0,1,39.032-49.981l45.624,79.644-63.4,57.94A88.183,88.183,0,0,1-4618.408-123.7Z" transform="translate(4931.333 452.667)" fill="#79d58a"></path>
<path id="Path_58869" data-name="Path 58869" d="M400.743,225.038v101.9l-53.03-92.667" fill="none" stroke="#fff" stroke-linecap="round" stroke-linejoin="round" stroke-width="3"></path>
</g>
</g>
<path id="Path_58868" data-name="Path 58868" d="M303.046,416.275l98.162-89.7-73.5-128.3" transform="translate(745.287 180.725)" fill="none" stroke="#fff" stroke-linecap="round" stroke-linejoin="round" stroke-width="3"></path>
<path id="Intersection_3" data-name="Intersection 3" d="M-3794.5-31h0a88.521,88.521,0,0,1,81.31,53.5L-3794.5,61.3Z" transform="translate(4941 446)" fill="#f79448"></path>
<path id="Path_58871" data-name="Path 58871" d="M492.386,283.069l-91.177,43.5v-126.3" transform="translate(745.287 180.725)" fill="none" stroke="#fff" stroke-linecap="round" stroke-linejoin="round" stroke-width="3"></path>
<g id="Group_35272" data-name="Group 35272" transform="translate(905.741 374.5)">
<g id="Group_35079" data-name="Group 35079" transform="translate(56.217 113.5)">
<g id="Group_35078" data-name="Group 35078" clip-path="url(#clip-path-2)">
<rect id="Rectangle_7168" data-name="Rectangle 7168" width="187.471" height="218.973" transform="translate(-1.105 0)" fill="#464646"></rect>
</g>
</g>
<g id="Group_35081" data-name="Group 35081" transform="translate(66.457 129.708)">
<g id="Group_35080" data-name="Group 35080" clip-path="url(#clip-path-3)">
<rect id="Rectangle_7169" data-name="Rectangle 7169" width="86.274" height="168.308" transform="matrix(0.235, -0.972, 0.972, 0.235, -11.373, 47.141)" fill="#80a7df"></rect>
</g>
</g>
<g id="Group_35121" data-name="Group 35121" transform="translate(197.301 229.476)" clip-path="url(#clip-path-4)">
<rect id="Rectangle_7187" data-name="Rectangle 7187" width="34.842" height="34.535" transform="matrix(0.72, -0.694, 0.694, 0.72, -9.398, 9.047)" fill="url(#linear-gradient)"></rect>
</g>
<path id="Rectangle_7202" data-name="Rectangle 7202" d="M12.267,0h0A12.267,12.267,0,0,1,24.533,12.267v22.08A12.267,12.267,0,0,1,12.267,46.613h0A12.267,12.267,0,0,1,0,34.346V12.267A12.267,12.267,0,0,1,12.267,0Z" transform="translate(198.936 258.098)" fill="#6d6d6d"></path>
<g id="Group_35211" data-name="Group 35211" transform="translate(44.993 322.911)">
<g id="Group_35210" data-name="Group 35210" clip-path="url(#clip-path-5)">
<rect id="Rectangle_7229" data-name="Rectangle 7229" width="26.567" height="27.374" transform="translate(-6.256 6.661) rotate(-47.406)" fill="url(#linear-gradient-2)"></rect>
</g>
</g>
<g id="Group_35213" data-name="Group 35213" transform="translate(45.508 319.627)">
<g id="Group_35212" data-name="Group 35212" clip-path="url(#clip-path-6)">
<rect id="Rectangle_7230" data-name="Rectangle 7230" width="6.442" height="7.486" transform="translate(0)" fill="url(#linear-gradient-3)"></rect>
</g>
</g>
<g id="Group_35215" data-name="Group 35215" transform="translate(30.233 224.79)">
<g id="Group_35214" data-name="Group 35214" clip-path="url(#clip-path-7)">
<rect id="Rectangle_7231" data-name="Rectangle 7231" width="99.663" height="86.593" transform="translate(-54.696 54.078) rotate(-51.02)" fill="url(#linear-gradient-4)"></rect>
</g>
</g>
<g id="Group_35217" data-name="Group 35217" transform="translate(20.952 325.129)">
<g id="Group_35216" data-name="Group 35216" clip-path="url(#clip-path-8)">
<rect id="Rectangle_7232" data-name="Rectangle 7232" width="14.823" height="14.838" transform="matrix(0.677, -0.736, 0.736, 0.677, -5.34, 5.62)" fill="url(#linear-gradient-5)"></rect>
</g>
</g>
<g id="Group_35219" data-name="Group 35219" transform="translate(22.291 318.289)">
<g id="Group_35218" data-name="Group 35218" clip-path="url(#clip-path-9)">
<rect id="Rectangle_7233" data-name="Rectangle 7233" width="5.562" height="9.027" transform="translate(0)" fill="url(#linear-gradient-6)"></rect>
</g>
</g>
<g id="Group_35221" data-name="Group 35221" transform="translate(16.296 223.191)">
<g id="Group_35220" data-name="Group 35220" clip-path="url(#clip-path-10)">
<rect id="Rectangle_7234" data-name="Rectangle 7234" width="98.681" height="88.905" transform="translate(-52.22 60.216) rotate(-51.02)" fill="url(#linear-gradient-7)"></rect>
</g>
</g>
<g id="Group_35223" data-name="Group 35223" transform="translate(16.362 159.071)">
<g id="Group_35222" data-name="Group 35222" clip-path="url(#clip-path-11)">
<rect id="Rectangle_7235" data-name="Rectangle 7235" width="98.745" height="96.839" transform="translate(-38.119 48.225) rotate(-53.599)" fill="url(#linear-gradient-8)"></rect>
</g>
</g>
<g id="Group_35225" data-name="Group 35225" transform="translate(72.018 135.497)">
<g id="Group_35224" data-name="Group 35224" clip-path="url(#clip-path-12)">
<rect id="Rectangle_7236" data-name="Rectangle 7236" width="32.912" height="38.657" transform="translate(0 0)" fill="url(#linear-gradient-9)"></rect>
</g>
</g>
<g id="Group_35227" data-name="Group 35227" transform="translate(101.142 119.124)">
<g id="Group_35226" data-name="Group 35226" clip-path="url(#clip-path-13)">
<rect id="Rectangle_7237" data-name="Rectangle 7237" width="22.746" height="18.847" transform="translate(-7.578 16.409) rotate(-66.274)" fill="url(#linear-gradient-10)"></rect>
</g>
</g>
<g id="Group_35229" data-name="Group 35229" transform="translate(103.226 126.951)">
<g id="Group_35228" data-name="Group 35228" clip-path="url(#clip-path-14)">
<rect id="Rectangle_7238" data-name="Rectangle 7238" width="9.335" height="8.425" transform="translate(-3.643 5.601) rotate(-56.96)" fill="url(#linear-gradient-11)"></rect>
</g>
</g>
<g id="Group_35231" data-name="Group 35231" transform="translate(0.362 166.32)">
<g id="Group_35230" data-name="Group 35230" clip-path="url(#clip-path-15)">
<rect id="Rectangle_7239" data-name="Rectangle 7239" width="37.552" height="36.884" transform="matrix(0.593, -0.805, 0.805, 0.593, -13.468, 18.267)" fill="url(#linear-gradient-12)"></rect>
</g>
</g>
<g id="Group_35233" data-name="Group 35233" transform="translate(0 190.813)">
<g id="Group_35232" data-name="Group 35232" clip-path="url(#clip-path-16)">
<rect id="Rectangle_7240" data-name="Rectangle 7240" width="41.65" height="32.25" transform="translate(0 0)" fill="url(#linear-gradient-13)"></rect>
</g>
</g>
<g id="Group_35235" data-name="Group 35235" transform="translate(37.105 174.223)">
<g id="Group_35234" data-name="Group 35234" clip-path="url(#clip-path-17)">
<rect id="Rectangle_7241" data-name="Rectangle 7241" width="47.626" height="41.855" transform="translate(-3.277 0.258) rotate(-4.708)" fill="url(#linear-gradient-14)"></rect>
</g>
</g>
<g id="Group_35237" data-name="Group 35237" transform="translate(60.658 170.919)">
<g id="Group_35236" data-name="Group 35236" clip-path="url(#clip-path-18)">
<rect id="Rectangle_7242" data-name="Rectangle 7242" width="5.903" height="9.35" transform="matrix(0.222, -0.975, 0.975, 0.222, -0.951, 3.881)" fill="url(#linear-gradient-15)"></rect>
</g>
</g>
<g id="Group_35239" data-name="Group 35239" transform="translate(56.214 173.035)">
<g id="Group_35238" data-name="Group 35238" clip-path="url(#clip-path-19)">
<rect id="Rectangle_7243" data-name="Rectangle 7243" width="8.517" height="17.152" transform="matrix(0.164, -0.986, 0.986, 0.164, -1.03, 5.741)" fill="url(#linear-gradient-16)"></rect>
</g>
</g>
<g id="Group_35241" data-name="Group 35241" transform="translate(38.558 191.248)">
<g id="Group_35240" data-name="Group 35240" clip-path="url(#clip-path-20)">
<rect id="Rectangle_7244" data-name="Rectangle 7244" width="13.393" height="11.921" transform="translate(-0.417)" fill="url(#linear-gradient-17)"></rect>
</g>
</g>
<g id="Group_35243" data-name="Group 35243" transform="translate(31.981 148.037)">
<g id="Group_35242" data-name="Group 35242" clip-path="url(#clip-path-21)">
<rect id="Rectangle_7245" data-name="Rectangle 7245" width="16.525" height="19.513" transform="translate(-0.058 0)" fill="url(#linear-gradient-18)"></rect>
</g>
</g>
<g id="Group_35245" data-name="Group 35245" transform="translate(35.33 133.537)">
<g id="Group_35244" data-name="Group 35244" clip-path="url(#clip-path-22)">
<rect id="Rectangle_7246" data-name="Rectangle 7246" width="27.597" height="27.461" transform="matrix(0.521, -0.854, 0.854, 0.521, -8.995, 14.748)" fill="url(#linear-gradient-19)"></rect>
</g>
</g>
<g id="Group_35247" data-name="Group 35247" transform="translate(27.152 125.399)">
<g id="Group_35246" data-name="Group 35246" clip-path="url(#clip-path-23)">
<rect id="Rectangle_7247" data-name="Rectangle 7247" width="36.202" height="36.212" transform="translate(-12.632 15.046) rotate(-51.697)" fill="url(#linear-gradient-20)"></rect>
</g>
</g>
<g id="Group_35249" data-name="Group 35249" transform="translate(36.229 143.097)">
<g id="Group_35248" data-name="Group 35248" clip-path="url(#clip-path-24)">
<rect id="Rectangle_7248" data-name="Rectangle 7248" width="7.07" height="7.617" transform="translate(-2.303 3.296) rotate(-58.62)" fill="url(#linear-gradient-21)"></rect>
</g>
</g>
<rect id="Rectangle_7262" data-name="Rectangle 7262" width="31" height="19" rx="9" transform="translate(196.259 229.5)" fill="#6d6d6d"></rect>
<g id="Group_35278" data-name="Group 35278" transform="translate(72.637 199.536)">
<rect id="Rectangle_7263" data-name="Rectangle 7263" width="30" height="19" rx="9" transform="translate(82.623 29.964)" fill="#757575"></rect>
<rect id="Rectangle_7268" data-name="Rectangle 7268" width="30" height="19" rx="9" transform="translate(82.623 -0.036)" fill="#757575"></rect>
<rect id="Rectangle_7271" data-name="Rectangle 7271" width="30" height="19" rx="9" transform="translate(82.623 54.964)" fill="#757575"></rect>
<rect id="Rectangle_7274" data-name="Rectangle 7274" width="30" height="19" rx="9" transform="translate(82.623 83.964)" fill="#757575"></rect>
<rect id="Rectangle_7264" data-name="Rectangle 7264" width="31" height="19" rx="9" transform="translate(40.623 29.964)" fill="#757575"></rect>
<rect id="Rectangle_7267" data-name="Rectangle 7267" width="31" height="19" rx="9" transform="translate(40.623 -0.036)" fill="#757575"></rect>
<rect id="Rectangle_7270" data-name="Rectangle 7270" width="31" height="19" rx="9" transform="translate(40.623 54.964)" fill="#757575"></rect>
<rect id="Rectangle_7273" data-name="Rectangle 7273" width="31" height="19" rx="9" transform="translate(40.623 83.964)" fill="#757575"></rect>
<rect id="Rectangle_7265" data-name="Rectangle 7265" width="31" height="19" rx="9" transform="translate(-0.377 29.964)" fill="#757575"></rect>
<rect id="Rectangle_7266" data-name="Rectangle 7266" width="31" height="19" rx="9" transform="translate(-0.377 -0.036)" fill="#757575"></rect>
<rect id="Rectangle_7269" data-name="Rectangle 7269" width="31" height="19" rx="9" transform="translate(-0.377 54.964)" fill="#757575"></rect>
<rect id="Rectangle_7272" data-name="Rectangle 7272" width="31" height="19" rx="9" transform="translate(-0.377 83.964)" fill="#757575"></rect>
</g>
<rect id="Rectangle_7275" data-name="Rectangle 7275" width="30" height="19" rx="9" transform="translate(196.259 199.5)" fill="#eb5459"></rect>
</g>
<g id="Group_35269" data-name="Group 35269" transform="translate(910.084 316.517)">
<g id="Group_35276" data-name="Group 35276" transform="translate(263.894 16.861)">
<g id="Group_35158" data-name="Group 35158" transform="translate(59.603 227.145)">
<g id="Group_35157" data-name="Group 35157" clip-path="url(#clip-path-25)">
<rect id="Rectangle_7203" data-name="Rectangle 7203" width="13.37" height="25.319" transform="translate(-1.277 2.369) rotate(-65.963)" fill="url(#linear-gradient-22)"></rect>
</g>
</g>
<g id="Group_35160" data-name="Group 35160" transform="translate(60.343 218.069)">
<g id="Group_35159" data-name="Group 35159" clip-path="url(#clip-path-26)">
<rect id="Rectangle_7204" data-name="Rectangle 7204" width="25.525" height="10.528" transform="translate(0)" fill="url(#linear-gradient-23)"></rect>
</g>
</g>
<g id="Group_35162" data-name="Group 35162" transform="translate(76.026 211.602)">
<g id="Group_35161" data-name="Group 35161" clip-path="url(#clip-path-27)">
<rect id="Rectangle_7205" data-name="Rectangle 7205" width="7.39" height="9.039" transform="translate(0)" fill="url(#linear-gradient-24)"></rect>
</g>
</g>
<g id="Group_35164" data-name="Group 35164" transform="translate(128.088 226.013)">
<g id="Group_35163" data-name="Group 35163" clip-path="url(#clip-path-28)">
<rect id="Rectangle_7206" data-name="Rectangle 7206" width="6.863" height="10.924" transform="translate(-1.145 3.318) rotate(-70.957)" fill="url(#linear-gradient-25)"></rect>
</g>
</g>
<g id="Group_35166" data-name="Group 35166" transform="translate(123.311 211.554)">
<g id="Group_35165" data-name="Group 35165" clip-path="url(#clip-path-29)">
<rect id="Rectangle_7207" data-name="Rectangle 7207" width="15.371" height="17.28" transform="translate(-0.614 -0.001)" fill="url(#linear-gradient-26)"></rect>
</g>
</g>
<g id="Group_35168" data-name="Group 35168" transform="translate(121.566 204.747)">
<g id="Group_35167" data-name="Group 35167" clip-path="url(#clip-path-30)">
<rect id="Rectangle_7208" data-name="Rectangle 7208" width="8.996" height="10.502" transform="translate(0)" fill="url(#linear-gradient-27)"></rect>
</g>
</g>
<g id="Group_35170" data-name="Group 35170" transform="translate(60.954 104.25)">
<g id="Group_35169" data-name="Group 35169" clip-path="url(#clip-path-31)">
<rect id="Rectangle_7209" data-name="Rectangle 7209" width="130.863" height="112.968" transform="translate(-45.317 87.923) rotate(-62.733)" fill="url(#linear-gradient-28)"></rect>
</g>
</g>
<g id="Group_35172" data-name="Group 35172" transform="translate(36.973 30.829)">
<g id="Group_35171" data-name="Group 35171" clip-path="url(#clip-path-32)">
<rect id="Rectangle_7210" data-name="Rectangle 7210" width="100.542" height="97.792" transform="matrix(0.656, -0.755, 0.755, 0.656, -41.733, 47.983)" fill="url(#linear-gradient-29)"></rect>
</g>
</g>
<g id="Group_35174" data-name="Group 35174" transform="translate(71.05 124.641)">
<g id="Group_35173" data-name="Group 35173" clip-path="url(#clip-path-33)">
<rect id="Rectangle_7211" data-name="Rectangle 7211" width="15.472" height="14.761" transform="translate(-4.308 2.095) rotate(-26.565)" fill="url(#linear-gradient-30)"></rect>
</g>
</g>
<g id="Group_35180" data-name="Group 35180" transform="translate(27.724 48.338)">
<g id="Group_35179" data-name="Group 35179" clip-path="url(#clip-path-34)">
<rect id="Rectangle_7214" data-name="Rectangle 7214" width="43.579" height="41.393" transform="translate(-20.419 23.477) rotate(-48.985)" fill="url(#linear-gradient-31)"></rect>
</g>
</g>
<g id="Group_35182" data-name="Group 35182" transform="translate(6.236 75.908)">
<g id="Group_35181" data-name="Group 35181" clip-path="url(#clip-path-35)">
<rect id="Rectangle_7215" data-name="Rectangle 7215" width="24.76" height="21.264" transform="translate(0 0)" fill="url(#linear-gradient-32)"></rect>
</g>
</g>
<g id="Group_35184" data-name="Group 35184" transform="translate(45.951 17.765)">
<g id="Group_35183" data-name="Group 35183" clip-path="url(#clip-path-36)">
<rect id="Rectangle_7216" data-name="Rectangle 7216" width="19.218" height="25.055" transform="translate(-0.146 0.001) rotate(-0.335)" fill="url(#linear-gradient-33)"></rect>
</g>
</g>
<g id="Group_35199" data-name="Group 35199" transform="translate(35.659 6.514)">
<g id="Group_35198" data-name="Group 35198" clip-path="url(#clip-path-37)">
<rect id="Rectangle_7223" data-name="Rectangle 7223" width="24.021" height="26.964" transform="translate(-9.562 5.249) rotate(-28.875)" fill="url(#linear-gradient-34)"></rect>
</g>
</g>
<g id="Group_35201" data-name="Group 35201" transform="translate(30.771)">
<g id="Group_35200" data-name="Group 35200" clip-path="url(#clip-path-38)">
<rect id="Rectangle_7224" data-name="Rectangle 7224" width="32.321" height="38.915" transform="translate(-5.142 0.561) rotate(-7.206)" fill="url(#linear-gradient-35)"></rect>
</g>
</g>
<g id="Group_35203" data-name="Group 35203" transform="translate(51.976 13.819)">
<g id="Group_35202" data-name="Group 35202" clip-path="url(#clip-path-39)">
<rect id="Rectangle_7225" data-name="Rectangle 7225" width="11.161" height="11.638" transform="translate(-5.546 3.202) rotate(-36.055)" fill="url(#linear-gradient-36)"></rect>
</g>
</g>
<g id="Group_35207" data-name="Group 35207" transform="translate(0 76.507)">
<g id="Group_35206" data-name="Group 35206" clip-path="url(#clip-path-40)">
<rect id="Rectangle_7227" data-name="Rectangle 7227" width="11.844" height="9.397" transform="translate(-0.235 0)" fill="url(#linear-gradient-37)"></rect>
</g>
</g>
<g id="Group_35251" data-name="Group 35251" transform="translate(46.484 231.014)">
<g id="Group_35250" data-name="Group 35250" clip-path="url(#clip-path-41)">
<rect id="Rectangle_7249" data-name="Rectangle 7249" width="100.559" height="98.73" transform="matrix(0.7, -0.714, 0.714, 0.7, -68.877, 70.214)" fill="url(#linear-gradient-38)"></rect>
</g>
</g>
<g id="Group_35253" data-name="Group 35253" transform="translate(75.192 230.015)">
<g id="Group_35252" data-name="Group 35252" clip-path="url(#clip-path-42)">
<rect id="Rectangle_7250" data-name="Rectangle 7250" width="101.272" height="99.429" transform="translate(-69.377 70.723) rotate(-45.55)" fill="url(#linear-gradient-39)"></rect>
</g>
</g>
<g id="Group_35255" data-name="Group 35255" transform="translate(113.988 229.95)">
<g id="Group_35254" data-name="Group 35254" clip-path="url(#clip-path-43)">
<rect id="Rectangle_7251" data-name="Rectangle 7251" width="148.284" height="147.323" transform="matrix(0.7, -0.714, 0.714, 0.7, -70.033, 71.299)" fill="url(#linear-gradient-40)"></rect>
</g>
</g>
<g id="Group_35257" data-name="Group 35257" transform="translate(64.566 230.309)">
<g id="Group_35256" data-name="Group 35256" clip-path="url(#clip-path-44)">
<rect id="Rectangle_7252" data-name="Rectangle 7252" width="148.034" height="147.078" transform="matrix(0.7, -0.714, 0.714, 0.7, -69.892, 71.115)" fill="url(#linear-gradient-41)"></rect>
</g>
</g>
<g id="Group_35259" data-name="Group 35259" transform="translate(44.303 229.605)">
<g id="Group_35258" data-name="Group 35258" clip-path="url(#clip-path-45)">
<rect id="Rectangle_7253" data-name="Rectangle 7253" width="70.385" height="71.641" transform="matrix(0.7, -0.714, 0.714, 0.7, -1.98, 2.019)" fill="url(#linear-gradient-42)"></rect>
</g>
</g>
<g id="Group_35261" data-name="Group 35261" transform="translate(78.81 255.829)">
<g id="Group_35260" data-name="Group 35260" clip-path="url(#clip-path-46)">
<rect id="Rectangle_7255" data-name="Rectangle 7255" width="36.889" height="37.528" transform="matrix(0.7, -0.714, 0.714, 0.7, -1.405, 1.432)" fill="url(#linear-gradient-43)"></rect>
</g>
</g>
<g id="Group_35263" data-name="Group 35263" transform="translate(93.607 287.798)">
<g id="Group_35262" data-name="Group 35262" clip-path="url(#clip-path-46)">
<rect id="Rectangle_7257" data-name="Rectangle 7257" width="36.889" height="37.527" transform="matrix(0.7, -0.714, 0.714, 0.7, -1.405, 1.432)" fill="url(#linear-gradient-44)"></rect>
</g>
</g>
<g id="Group_35265" data-name="Group 35265" transform="translate(107.552 319.766)">
<g id="Group_35264" data-name="Group 35264" clip-path="url(#clip-path-48)">
<rect id="Rectangle_7259" data-name="Rectangle 7259" width="39.091" height="39.773" transform="matrix(0.7, -0.714, 0.714, 0.7, -1.405, 1.432)" fill="url(#linear-gradient-45)"></rect>
</g>
</g>
<g id="Group_35267" data-name="Group 35267" transform="translate(122.553 351.736)">
<g id="Group_35266" data-name="Group 35266" clip-path="url(#clip-path-49)">
<rect id="Rectangle_7260" data-name="Rectangle 7260" width="39.092" height="39.773" transform="translate(-1.405 1.432) rotate(-45.55)" fill="url(#linear-gradient-46)"></rect>
</g>
</g>
<g id="Group_35176" data-name="Group 35176" transform="translate(95.315 77.261)">
<g id="Group_35175" data-name="Group 35175" transform="translate(0 0)" clip-path="url(#clip-path-50)">
<rect id="Rectangle_7212" data-name="Rectangle 7212" width="27.962" height="26.831" transform="matrix(0.663, -0.749, 0.749, 0.663, -12.907, 14.576)" fill="url(#linear-gradient-47)"></rect>
</g>
</g>
<g id="Group_35178" data-name="Group 35178" transform="translate(83.793 31.264)">
<g id="Group_35177" data-name="Group 35177" transform="translate(0.001 0)" clip-path="url(#clip-path-51)">
<rect id="Rectangle_7213" data-name="Rectangle 7213" width="54.109" height="52.253" transform="translate(-23.342 26.838) rotate(-48.985)" fill="url(#linear-gradient-48)"></rect>
</g>
</g>
</g>
</g>
<rect id="Rectangle_7261" data-name="Rectangle 7261" width="87" height="29" rx="13" transform="translate(1181 407)" fill="#333"></rect>
<rect id="Rectangle_7167" data-name="Rectangle 7167" width="87" height="29" rx="13" transform="translate(1184 405)" fill="#f1f8fc"></rect>
<text id="Flight" transform="translate(1206 424)" fill="#333" font-size="16" font-family="Poppins-Medium, Poppins" font-weight="500" letter-spacing="0.005em"><tspan x="0" y="0">Flight</tspan></text>
<g id="Group_35277" data-name="Group 35277" transform="translate(1253.985 436.06) rotate(-16)">
<g id="Group_35204" data-name="Group 35204" transform="translate(0 0)" clip-path="url(#clip-path-52)">
<rect id="Rectangle_7226" data-name="Rectangle 7226" width="16.612" height="17.632" transform="translate(10.131 -9.778) rotate(48.474)" fill="url(#linear-gradient-49)"></rect>
</g>
</g>
<line id="Line_270" data-name="Line 270" x1="10" y1="24" transform="translate(1116.5 407.5)" fill="none" stroke="#dedede" stroke-width="1"></line>
<line id="Line_271" data-name="Line 271" x1="23" y1="9" transform="translate(1062.5 464.5)" fill="none" stroke="#dedede" stroke-width="1"></line>
<line id="Line_272" data-name="Line 272" x1="15" y1="30" transform="translate(1169.5 567.5)" fill="none" stroke="#dedede" stroke-width="1"></line>
<line id="Line_273" data-name="Line 273" y1="28" x2="22" transform="translate(1169.5 436.5)" fill="none" stroke="#dedede" stroke-width="1"></line>
<text id="Meals" transform="translate(1092 399)" fill="#333" font-size="16" font-family="Poppins-Medium, Poppins" font-weight="500"><tspan x="0" y="0">Meals</tspan></text>
<text id="Car" transform="translate(1029 467)" fill="#333" font-size="16" font-family="Poppins-Medium, Poppins" font-weight="500"><tspan x="0" y="0">Car</tspan></text>
<text id="Hotel" transform="translate(1170 614)" fill="#333" font-size="16" font-family="Poppins-Medium, Poppins" font-weight="500"><tspan x="0" y="0">Hotel</tspan></text>
<g id="Group_35281" data-name="Group 35281" transform="translate(738.165 490.154)">
<g id="Group_35280" data-name="Group 35280" transform="translate(0 0.001)" clip-path="url(#clip-path-53)">
<path id="Path_58939" data-name="Path 58939" d="M260.958,311.211l2.2,1.79s6.029-2.162,7.39,5c0,0,.362,3.053-1.572,3.059s-1.136-.334-3.875-.254-5.009-1.364-5.41-3.586l-1.31-1.883Z" transform="translate(-182.352 -219.633)" fill="#ea8e50"></path>
<path id="Path_58940" data-name="Path 58940" d="M109.116,213.68c1.759-1.836,1.617-3.193,1.617-3.193s-20.361-16.669-22.426-18.027C86.9,191.534,71.9,178.24,64.9,170.136c-3.477-4.02-7.784-2.46-12.711-1.046l-4.058,1.164c-4.9,1.405-6.174,8.258-2.154,11.588,11.322,9.378,30.157,19.926,33.681,22.143,8.749,5.5,25.873,12.042,25.873,12.042a10.852,10.852,0,0,0,3.587-2.348" transform="translate(-30.759 -118.261)" fill="#1e3d70"></path>
<path id="Path_58941" data-name="Path 58941" d="M329.646,672.307s4.941,3.7,12.513,1.746c0,0,6.1-1.391,7.443,1.653,0,0-9.363,4.756-11.731,6.057a28.387,28.387,0,0,0-4.966,3.724,2.455,2.455,0,0,1-3.555-.274c-.412-.506-.883-1.109-1.4-1.809-1.443-1.956-4.807-8.275-4.807-8.275Z" transform="translate(-228.054 -474.472)" fill="#233862"></path>
<path id="Path_58942" data-name="Path 58942" d="M172.394,454.179s-3.009,6.938-9.954,5.662c0,0-14.172-11.7-23.894-23.862a54.021,54.021,0,0,1-7.425-11.6c-6.447-14.926-23.846-37.186-34.909-48.469l27.678-10.013s8.866,17.834,20.661,39.739c8.5,15.783,18.521,33.681,27.843,48.546" transform="translate(-67.9 -258.225)" fill="#2b478b"></path>
<path id="Path_58943" data-name="Path 58943" d="M144.551,405.633l-6.005,30.346a54,54,0,0,1-7.425-11.6c-6.447-14.925-23.846-37.186-34.909-48.469l27.678-10.013s8.866,17.834,20.661,39.739" transform="translate(-67.9 -258.225)" fill="#233862"></path>
<path id="Path_58944" data-name="Path 58944" d="M159.72,678.711s-.3,5.536,6.409,6.274c0,0,3.835.021,3.846,3.544l-19.505.062a15.181,15.181,0,0,1-.7-4.465c-.105-2.338,2.266-8.449,2.266-8.449Z" transform="translate(-105.694 -476.85)" fill="#233862"></path>
<path id="Path_58945" data-name="Path 58945" d="M94.935,362.948s12.33,13.549,20.157,37.958c4.259,13.281-7.805,46.671-10.157,58.272,0,0-8.093.686-13.626-1.453,0,0-.421-23.962,2.816-42.43C95.935,404.96,77.89,393.191,70,374.515c-5.364-12.706,1.161-12.49,9.182-12.8Z" transform="translate(-48.024 -255.279)" fill="#2b478b"></path>
<path id="Path_58946" data-name="Path 58946" d="M60.913,120.377c-6.86,3.874-20.9.3-20.9.3s5.7-6.52,3.112-17.021l5.386,2.735,5.786,2.939a48.01,48.01,0,0,1,.634,5.186c.066.858.126,1.816.167,2.863a18,18,0,0,1,5.82,3" transform="translate(-28.236 -73.155)" fill="#ffb07b"></path>
<path id="Path_58947" data-name="Path 58947" d="M73.673,212.339c0,1.206-1.389,1.783-1.684,1.842-2.767.506-10.493,3.511-17.452,4.2a55.808,55.808,0,0,1-17.279-1.169c-.791-.159-2.65-.66-2.781-1.418-.165-.828-23.056-46.666-5.261-66.356.418-.462,3.93.37,7.143,1.133a13.187,13.187,0,0,0,8.118-.664l3.013,1.585c3.7,2.062,10.7,9.386,11.519,15.132.416,2.923,2.087,5.087,2.571,7.658q.269,1.427.55,2.785.547,2.663,1.127,5.072c1.046,4.347,2.151,8.088,3.236,11.321,1.155,3.432,2.287,6.287,3.3,8.675,1.312,3.1,2.421,5.411,3.113,7.183a8.86,8.86,0,0,1,.77,3.02" transform="translate(-15.84 -105.37)" fill="#2a4e96"></path>
<path id="Path_58948" data-name="Path 58948" d="M89.581,246.629c-32.314-15.224-43.5-44.458-43.5-44.458s26.254,9.685,32.73,12.206q.547,2.664,1.127,5.073c1.046,4.347,2.151,8.088,3.236,11.321,1.155,3.432,2.287,6.287,3.3,8.675,1.312,3.1,2.421,5.411,3.113,7.183" transform="translate(-32.518 -142.68)" fill="#1e3d70"></path>
<path id="Path_58949" data-name="Path 58949" d="M64,121.077c-6.746.379-11.133-5.191-11.133-5.191a53.614,53.614,0,0,0,4.714-2.933l5.786,2.939A48.01,48.01,0,0,1,64,121.077" transform="translate(-37.313 -79.715)" fill="#ea8e50"></path>
<path id="Path_58950" data-name="Path 58950" d="M51.685,75.75s-10.222,7.335-14.692.9-8.8-9.823-2.463-14.779,9.325-3.39,11.339-1.6,8.359,13.41,5.815,15.484" transform="translate(-22.12 -41.314)" fill="#ffb07b"></path>
<path id="Path_58951" data-name="Path 58951" d="M24.83,34.543a16.458,16.458,0,0,0-1.191-4.215s-.641,2.657-5.5,2.291S5.589,33.1,3.024,38.63c-.163.352-.309.715-.438,1.086a12.8,12.8,0,0,1-.576-3.065,9.447,9.447,0,0,0,0,5.362h0c-.014.087-.026.174-.038.261C.9,43.179,0,46,0,46a3.373,3.373,0,0,1,1.815-1.614C1.794,48.688,3.54,52.9,6.6,54.15c4.482,1.833,4.446.435,8.954,3.424,0,0,1.209-1.5.385-2.508s-3.94-2.474-2.2-3.94,2.382.183,3.024-.825-2.565-3.94,1.558-6.689,6.872-6.6,6.505-9.071" transform="translate(0 -21.404)" fill="#233862"></path>
<path id="Path_58952" data-name="Path 58952" d="M110.778,62.273a49.84,49.84,0,1,1,60.687,35.847,49.84,49.84,0,0,1-60.687-35.847" transform="translate(-77.062 -0.001)" fill="#ffb93e"></path>
<path id="Path_58953" data-name="Path 58953" d="M181.469,106.376a45.409,45.409,0,1,1-22.632-87.953,45.409,45.409,0,0,1,22.632,87.953m-21.957-85.33a42.7,42.7,0,1,0,51.994,30.712,42.749,42.749,0,0,0-51.994-30.712" transform="translate(-88.023 -11.978)" fill="#ffa412"></path>
<path id="Path_58954" data-name="Path 58954" d="M244.812,101.334a7.494,7.494,0,0,0-.761-2.527,5.477,5.477,0,0,0-1.625-1.842,10.355,10.355,0,0,0-2.649-1.35,27.321,27.321,0,0,0-3.828-1.013A71.631,71.631,0,0,1,228.9,92.8a22.6,22.6,0,0,1-5.587-2.571,13.3,13.3,0,0,1-3.908-3.88,15.005,15.005,0,0,1-1.654-11.292,12.625,12.625,0,0,1,2.433-4.663,15.757,15.757,0,0,1,4.282-3.579,21.009,21.009,0,0,1,5.911-2.27l-1.005-7.47,6.012-.809,1.019,7.574a18.838,18.838,0,0,1,6.092.922A14.241,14.241,0,0,1,250.907,72a18.949,18.949,0,0,1,1.844,6.166l-10.859,1.461q-.564-4.189-2.7-6.016a6.414,6.414,0,0,0-5.258-1.407,8.157,8.157,0,0,0-2.849.864,5.521,5.521,0,0,0-1.836,1.561,5.154,5.154,0,0,0-.9,2.095,7.573,7.573,0,0,0-.051,2.459,6.939,6.939,0,0,0,.69,2.287,5.132,5.132,0,0,0,1.557,1.764,10.376,10.376,0,0,0,2.668,1.346,34.98,34.98,0,0,0,4,1.115q3.827.871,7.008,1.9a22.863,22.863,0,0,1,5.573,2.608,12.839,12.839,0,0,1,5.883,9.6,13.724,13.724,0,0,1-.329,5.659,12.474,12.474,0,0,1-2.457,4.631,15.22,15.22,0,0,1-4.331,3.5,22.7,22.7,0,0,1-5.956,2.223l.935,6.946-5.975.8-.93-6.911a25.459,25.459,0,0,1-6.214-.549,16.129,16.129,0,0,1-5.573-2.324,14.422,14.422,0,0,1-4.276-4.489,17.562,17.562,0,0,1-2.321-7.008l10.86-1.461a10.83,10.83,0,0,0,1.251,4.042,7,7,0,0,0,2.217,2.4A6.788,6.788,0,0,0,235.4,108.3a11.613,11.613,0,0,0,3.079-.006,9.711,9.711,0,0,0,3.039-.87,6.48,6.48,0,0,0,2.067-1.558,5.165,5.165,0,0,0,1.1-2.085,6.291,6.291,0,0,0,.129-2.452" transform="translate(-153.344 -39.707)" fill="#ffa412"></path>
<path id="Path_58955" data-name="Path 58955" d="M259.964,327.229s5.47,1.844,8.62,1.767,8.63-3.391,8.641-3.625-2.463-1.661-6.052-1.208-4.319-.085-3.2-.531c1.255-.5,2.15-1.253,1.844-1.731-.169-.264-1.972.307-2.587.512s-2.151-.359-3.432.566c-.851.614-4.047,1.073-4.047,1.073Z" transform="translate(-183.314 -227.13)" fill="#ffc299"></path>
<path id="Path_58956" data-name="Path 58956" d="M99.831,221.679c.964-2.719,1.4-3.95,1.4-3.95s-21.527-16.66-23.713-18.08c-1.49-.968-16.345-11.5-23.668-19.812a14.88,14.88,0,0,0-14.589-4.646l-4.4,1.04a6.587,6.587,0,0,0-2.647,11.518c11.934,9.719,31.928,20.836,35.663,23.159,9.27,5.767,29.653,13.661,29.653,13.661a5.193,5.193,0,0,0,2.3-2.889" transform="translate(-21.018 -123.357)" fill="#2a4e96"></path>
</g>
</g>
</g>
</svg>