<svg xmlns="http://www.w3.org/2000/svg" viewBox="0 0 1024 1024"><defs><style>.cls-1{fill:#1791ff;}.cls-2{fill:#fff;}</style></defs><title>ios-et</title><g id="Layer_2" data-name="Layer 2"><g id="Mask"><path class="cls-1" d="M799,0H225C100.74,0,0,100.74,0,225V799c0,124.28,100.74,225,225,225H799c124.28,0,225-100.74,225-225V225C1024,100.74,923.26,0,799,0ZM687.57,822.67A38.31,38.31,0,0,1,666.48,829h-309a38.25,38.25,0,0,1-38.25-38.25V233.27A38.25,38.25,0,0,1,357.48,195h309a38.27,38.27,0,0,1,32,59.34L585.81,425l43.52,65.94a38.27,38.27,0,0,1,0,42.14l-43.5,66,81.52,123.55,31.07,47.13A38.24,38.24,0,0,1,687.57,822.67Z"/><path class="cls-1" d="M434.09,322.4V701.53c0,37.94,49.28,52.74,70.17,21L585.79,599l-43.5-65.93a38.27,38.27,0,0,1,0-42.14l43.52-66L504.26,301.38C483.37,269.71,434.09,284.5,434.09,322.4Z"/><path class="cls-2" d="M542.29,533.07,585.79,599l0,0,0,0,43.5-66a38.27,38.27,0,0,0,0-42.14L585.81,425l-43.52,66A38.27,38.27,0,0,0,542.29,533.07Z"/></g></g></svg>