<svg id="Capa_1" enable-background="new 0 0 512 512" height="512" viewBox="0 0 512 512" width="512" xmlns="http://www.w3.org/2000/svg"><g><path d="m235.257 171.545c2.314 0 4.628-.609 6.737-1.827l58.577-33.82c4.218-2.436 6.737-6.797 6.737-11.669s-2.519-9.233-6.737-11.669l-58.577-33.819c-4.218-2.437-9.255-2.437-13.474 0-4.218 2.435-6.737 6.797-6.737 11.668v67.639c0 4.871 2.519 9.234 6.737 11.669 2.11 1.22 4.423 1.828 6.737 1.828zm1.497-78.541 54.086 31.226-54.086 31.227z"/><circle cx="310.166" cy="214.687" r="9.602"/><ellipse cx="349.851" cy="225.354" rx="9.602" ry="9.602" transform="matrix(.987 -.16 .16 .987 -31.58 58.95)"/><path d="m484.554 26.114h-399.68c-4.134 0-7.485 3.351-7.485 7.485s3.351 7.485 7.485 7.485h399.68c6.879 0 12.476 5.596 12.476 12.476v114.861c0 4.135 3.351 7.485 7.485 7.485s7.485-3.351 7.485-7.485v-114.861c0-15.133-12.312-27.446-27.446-27.446z"/><path d="m504.515 200.136c-4.134 0-7.485 3.351-7.485 7.485v81.533h-24.715l2.654-21.995c.569-4.712-.624-9.441-3.275-13.316 3.154-6.058 4.476-12.952 3.738-19.885-1.725-16.193-14.744-29.172-30.958-30.862-1.105-.115-2.211-.178-3.315-.19.135-1.25.204-2.512.204-3.777 0-17.996-13.713-32.85-31.27-34.663-3.897-16.966-19.685-28.502-37.49-26.726-15.587 1.556-28.259 13.439-30.818 28.899-.21 1.269-.35 2.544-.422 3.82-.698-.042-1.398-.062-2.098-.062-8.725 0-17.024 3.24-23.397 9.02-6.372-5.78-14.671-9.02-23.397-9.02-18.537 0-33.739 14.547-34.791 32.825-4.235.929-8.271 2.646-11.882 5.044h-91.18c-3.302-12.207-14.468-21.216-27.705-21.216s-24.404 9.009-27.705 21.216h-21.235c-4.134 0-7.485 3.351-7.485 7.485s3.351 7.485 7.485 7.485h21.233c3.302 12.207 14.469 21.216 27.705 21.216s24.403-9.009 27.705-21.216h78.571c-2.218 5.034-3.219 10.567-2.86 16.267.311 4.932 1.7 9.729 4.029 14.088-2.771 3.92-4.016 8.756-3.435 13.568l2.654 21.995h-218.604v-235.594c0-6.879 5.596-12.476 12.476-12.476h19.93c4.134 0 7.485-3.351 7.485-7.485s-3.351-7.485-7.485-7.485h-19.93c-15.135 0-27.447 12.313-27.447 27.446v289.875c0 15.134 12.312 27.446 27.446 27.446h164.076v58.501h-22.597c-4.134 0-7.485 3.351-7.485 7.485 0 4.135 3.351 7.485 7.485 7.485h83.381l2.945 24.403c1.178 9.765 9.484 17.13 19.322 17.13h156.745c9.837 0 18.143-7.364 19.322-17.13l11.812-97.874h22.103c15.134 0 27.446-12.313 27.446-27.446v-135.813c-.001-4.135-3.352-7.486-7.486-7.486zm-239.43 17.25c4.645.384 8.715-4.164 7.802-8.746-2.192-11.981 7.402-23.386 19.582-23.272 5.897 0 11.454 2.596 15.246 7.12 3.987 5.011 12.315 5.01 16.302.002 4.665-5.647 12.354-8.256 19.489-6.67 6.831 1.672 13.739-4.489 12.866-11.466-1.231-10.576 7.132-20.759 17.715-21.716 10.881-1.093 20.462 6.52 21.789 17.314.652 5.304 5.208 9.3 10.625 9.3h.013c10.961 0 19.878 8.917 19.878 19.878 0 1.889-.265 3.756-.786 5.55-2.346 7.193 4.458 14.947 11.894 13.467 10.989-2.008 22.002 6.263 23.044 17.397.374 3.511-.183 6.99-1.55 10.138-1.099-.193-2.215-.316-3.347-.316h-205.404c-1.059 0-2.103.113-3.135.282-1.051-2.23-1.685-4.63-1.84-7.084-.35-5.569 1.547-10.862 5.343-14.904 3.799-4.046 8.945-6.274 14.474-6.274zm127.571 253.529 2.614-76.782c1.425-.865 2.817-1.768 4.154-2.727 8.171-5.857 14.07-12.998 17.404-20.86l-6.728 100.369zm-96.867 0-6.727-100.368c3.334 7.862 9.234 15.002 17.404 20.859 1.338.959 2.73 1.862 4.155 2.727l2.614 76.782zm57.156-80.571c-28.717 0-52.08-15.797-52.08-35.214s23.363-35.214 52.08-35.214 52.08 15.797 52.08 35.214-23.363 35.214-52.08 35.214zm7.485-85.082v-44.926h24.417l-1.7 49.928c-7.065-2.65-14.739-4.347-22.717-5.002zm-14.97 0c-7.978.655-15.651 2.352-22.716 5.002l-1.7-49.928h24.417v44.926zm-39.397-44.926 1.957 57.454c-.521.351-1.047.698-1.555 1.063-9.857 7.066-16.415 15.996-19.139 25.814l-5.653-84.331zm19.772 140.743c6.192 2.032 12.796 3.357 19.624 3.918v65.918h-17.246zm34.595 3.918c6.828-.561 13.432-1.885 19.625-3.918l-2.378 69.836h-17.247zm58.134-60.328c-2.723-9.819-9.282-18.75-19.139-25.816-.508-.364-1.034-.711-1.555-1.062l1.956-57.454h24.39zm-291.653-115.187c-7.571 0-13.731-6.16-13.731-13.731s6.16-13.731 13.731-13.731 13.731 6.16 13.731 13.731-6.16 13.731-13.731 13.731zm-111.94 113.954v-39.31h220.412l6.25 51.786h-214.187c-6.879-.001-12.475-5.597-12.475-12.476zm191.522 85.947v-58.501h36.946l7.06 58.501zm63.621 37.58-24.329-201.596c-.211-1.746.598-2.953 1.099-3.519.5-.564 1.603-1.512 3.36-1.512h16.426l14.115 210.579h-6.211c-2.271 0-4.189-1.699-4.46-3.952zm165.663 0c-.272 2.253-2.189 3.952-4.459 3.952h-6.211l14.115-210.579h16.425c1.758 0 2.86.947 3.36 1.512.501.565 1.309 1.773 1.099 3.519zm48.777-111.052h-20.296l6.25-51.786h26.522v39.31c-.001 6.88-5.597 12.476-12.476 12.476z"/></g></svg>